<svg xmlns="http://www.w3.org/2000/svg" viewBox="0 0 120.87 61.27"><defs><style>.cls-1{fill:#fa0;}.cls-2{fill:none;stroke:#fa0;stroke-miterlimit:10;}</style></defs><g id="Capa_2" data-name="Capa 2"><g id="Capa_1-2" data-name="Capa 1"><g id="Capa_2-2" data-name="Capa 2"><g id="Capa_1-2-2" data-name="Capa 1-2"><polygon class="cls-1" points="51.19 24.25 59.21 20.01 64.96 11.97 69.95 11.97 67.02 15.89 74.83 11.76 72.77 7.84 62.9 8.05 51.19 24.25"/></g></g><circle class="cls-2" cx="18.26" cy="27.44" r="8.78"/><path class="cls-1" d="M0,0V61.27H120.87V0ZM46.81,53.74a5,5,0,0,1-5,5H7.28a5,5,0,0,1-5.05-5v-10a5,5,0,0,1,5.05-5H41.77a5,5,0,0,1,5,5Zm26.6.81H52.6V52.9H73.41Zm-20.84-5V47.93H67.51v1.66Zm37.5,5H75.14V52.9H90.07Zm0-5H69.3V47.93H90.1Zm0-5H52.57V43H90.1Zm28.5-20.92a3.74,3.74,0,0,1-3.74,3.73H27.13a8.78,8.78,0,0,1-17.56,0H6a3.74,3.74,0,0,1-3.74-3.73V6.86A3.75,3.75,0,0,1,6,3.12H114.86a3.75,3.75,0,0,1,3.74,3.74Z"/></g></g></svg>