<svg xmlns="http://www.w3.org/2000/svg" viewBox="0 0 120.87 61.27"><defs><style>.cls-1{fill:#fa0;}</style></defs><g id="Capa_2" data-name="Capa 2"><g id="Capa_1-2" data-name="Capa 1"><path class="cls-1" d="M85.53,53.36H4a4,4,0,0,0-4,4H0a4,4,0,0,0,4,4H85.53a4,4,0,0,0,4-4h0A4,4,0,0,0,85.53,53.36ZM55.6,59.16a1,1,0,0,1-1,1H34.92a1,1,0,0,1-1-1V57.77a1,1,0,0,1,1-1H54.57a1,1,0,0,1,1,1Z"/><path class="cls-1" d="M83.87,0H5.62A5.61,5.61,0,0,0,0,5.62V45.45a5.61,5.61,0,0,0,5.62,5.61H83.87a5.62,5.62,0,0,0,5.62-5.61V5.62A5.62,5.62,0,0,0,83.87,0Zm3.39,43a5.62,5.62,0,0,1-5.62,5.62H7.85A5.62,5.62,0,0,1,2.23,43V8A5.62,5.62,0,0,1,7.85,2.43H81.64A5.62,5.62,0,0,1,87.26,8Z"/><g id="Capa_2-2" data-name="Capa 2"><g id="Capa_1-2-2" data-name="Capa 1-2"><polygon class="cls-1" points="30.86 35.17 40.28 30.2 47.04 20.74 52.9 20.74 49.45 25.34 58.63 20.5 56.21 15.89 44.62 16.14 30.86 35.17"/></g></g><path class="cls-1" d="M116.72,3H96.55A4.15,4.15,0,0,0,92.4,7.15V53.36a4.15,4.15,0,0,0,4.15,4.15h20.17a4.15,4.15,0,0,0,4.15-4.15V7.15A4.15,4.15,0,0,0,116.72,3ZM103.65,4.68h7.58v1h-7.58Zm-1.13,0a.48.48,0,0,1,.48.48.49.49,0,0,1-.48.48.48.48,0,0,1-.48-.48A.47.47,0,0,1,102.52,4.68ZM107.19,57a1.73,1.73,0,1,1,1.72-1.73A1.73,1.73,0,0,1,107.19,57Zm13-8.11A4.15,4.15,0,0,1,116,53H97.25a4.15,4.15,0,0,1-4.15-4.15V10.72a4.15,4.15,0,0,1,4.15-4.15H116a4.15,4.15,0,0,1,4.15,4.15Z"/><g id="Capa_2-3" data-name="Capa 2"><g id="Capa_1-2-3" data-name="Capa 1-2"><polygon class="cls-1" points="100.25 34.24 104.58 31.95 107.69 27.6 110.39 27.6 108.8 29.72 113.03 27.49 111.91 25.37 106.58 25.48 100.25 34.24"/></g></g></g></g></svg>