<svg xmlns="http://www.w3.org/2000/svg" viewBox="0 0 167.15 65.97"><defs><style>.cls-1{fill:#fa0;}</style></defs><g id="Capa_2" data-name="Capa 2"><g id="Capa_1-2" data-name="Capa 1"><polygon class="cls-1" points="0 65.97 32.35 48.94 55.57 16.59 75.69 16.59 63.86 32.35 95.38 15.76 87.08 0 47.27 0.83 0 65.97"/><path class="cls-1" d="M61.46,59.63l-1.65-5.38H52l-1.68,5.38h-7l9.37-25.77h6.5l9.31,25.77Zm-2.59-10.2L56.3,42.59l-2.62,6.84Z"/><path class="cls-1" d="M81.76,59.66l-4.45-7.51H75.87v7.51H69v-26H79.38a11.54,11.54,0,0,1,4.25.7,7.15,7.15,0,0,1,3,1.89,7.87,7.87,0,0,1,1.71,2.89,11.7,11.7,0,0,1,.58,3.77,9.19,9.19,0,0,1-1,4.48,6.7,6.7,0,0,1-3,3l-.4.24,5.53,9ZM75.72,45h2.07a3.94,3.94,0,0,0,2-.53,2.08,2.08,0,0,0,.91-2,2.38,2.38,0,0,0-.65-1.77A3.23,3.23,0,0,0,77.79,40H75.72Z"/><path class="cls-1" d="M108.75,59.63l-1.65-5.38H99.29l-1.68,5.38h-7l9.37-25.77h6.5l9.31,25.77Zm-2.59-10.2-2.57-6.84L101,49.43Z"/><path class="cls-1" d="M116,59.63v-26h7.69V52.51h9.68v7.12Z"/><path class="cls-1" d="M134.27,59.63V33.58h7.36V59.63Z"/><path class="cls-1" d="M158.39,59.63,154,51.57l-4.43,8.06H141l8.12-12.7-7.75-13.28H150l4.15,7.78,4.21-7.78h8.09L159,46.9l8.12,12.73Z"/></g></g></svg>