<svg xmlns="http://www.w3.org/2000/svg" viewBox="0 0 84.49 111.25"><defs><style>.cls-1{font-size:3.74px;fill:#2a421f;font-family:EastmanTrial-Bold, Eastman Trial;font-weight:700;letter-spacing:0.25em;}.cls-2{letter-spacing:0.3em;}.cls-3{letter-spacing:0.28em;}.cls-4{letter-spacing:0.3em;}.cls-5{letter-spacing:0.26em;}.cls-6{fill:#616160;}.cls-7{fill:#a35d2b;}.cls-8{fill:#a35e2a;}.cls-9{fill:#7baf6d;}</style></defs><g id="Capa_2" data-name="Capa 2"><g id="Capa_1-2" data-name="Capa 1"><text class="cls-1" transform="translate(29.54 96.08) scale(0.91 1)">J<tspan class="cls-2" x="3.15" y="0">ARDINES</tspan><tspan class="cls-3"><tspan x="-2.77" y="4.49">C</tspan><tspan class="cls-4" x="1.02" y="4.49">O</tspan><tspan class="cls-5" x="5.35" y="4.49">L</tspan><tspan class="cls-4" x="8.66" y="4.49">GANTES</tspan></tspan></text><polygon class="cls-6" points="42.24 0 0 74.4 6.04 74.4 42.24 10.63 78.45 74.4 84.49 74.4 42.24 0"/><polygon class="cls-7" points="6.04 74.4 12.07 74.4 27.16 47.83 42.24 74.4 57.33 47.83 72.42 74.4 78.45 74.4 57.33 37.2 42.24 63.77 27.16 37.2 6.04 74.4"/><path class="cls-8" d="M0,94.52v.83a2.78,2.78,0,0,0,2.3,3c4.38.24,13.53,1.33,13.53,6.34,0,6.58,15.66,6.58,15.66,6.58H52.61s16,0,16-6.58c0-5,9.18-6.21,13.57-6.49a2.8,2.8,0,0,0,2.28-3v-.66a2.76,2.76,0,0,0-2.42-3H79.21s-15.85,0-15.85,6.58-15.84,6.58-15.84,6.58H37s-15.85,0-15.85-6.58S5.27,91.51,5.27,91.51H2.4A2.75,2.75,0,0,0,0,94.52Z"/><path class="cls-9" d="M7.56,80.36a2.29,2.29,0,0,1-.09.66,2.93,2.93,0,0,0-.08.7,2.23,2.23,0,0,1-.31.64l-.48.71a1.93,1.93,0,0,1,.48.59,3,3,0,0,1,.31.77,2.76,2.76,0,0,0,.08.56,2.43,2.43,0,0,1,.09.6,3,3,0,0,1-.09.72,3,3,0,0,0-.08.58A4.3,4.3,0,0,1,5,89.42a2.29,2.29,0,0,0-.55.09,2.86,2.86,0,0,1-.7.09H0V76.31H3.71a2.19,2.19,0,0,1,.7.12,1.88,1.88,0,0,1,.55.25A3.56,3.56,0,0,1,7.39,79a2.92,2.92,0,0,0,.08.6A2.89,2.89,0,0,1,7.56,80.36Zm-2.92.93A1.52,1.52,0,0,0,5,80.36a1.48,1.48,0,0,0-.32-.93A1.14,1.14,0,0,0,3.71,79H2.6v2.7H3.71A1.1,1.1,0,0,0,4.64,81.29Zm-.93,5.6a1.22,1.22,0,0,0,.93-.34,1.37,1.37,0,0,0,.32-1,1.14,1.14,0,0,0-.32-.84,1.25,1.25,0,0,0-.93-.32H2.6v2.46Z"/><path class="cls-9" d="M14.56,76.68A3.56,3.56,0,0,1,17,79a2.36,2.36,0,0,0,.08.6,2.89,2.89,0,0,1,.09.74V89.6h-2.6V84.43H12V89.6H9.6V80.36c0-.27,0-.51,0-.74a2.09,2.09,0,0,1,.1-.6,3.29,3.29,0,0,1,.91-1.49,3.72,3.72,0,0,1,1.4-.85,5.83,5.83,0,0,1,.7-.25,1.77,1.77,0,0,1,.55-.12,2.19,2.19,0,0,1,.73.12A1.84,1.84,0,0,1,14.56,76.68Zm-.32,2.75a1.18,1.18,0,0,0-1-.41,1.14,1.14,0,0,0-.46.11,1.17,1.17,0,0,0-.4.3,1.52,1.52,0,0,0-.28.43,1.25,1.25,0,0,0-.11.5v1.36h2.54V80.36A1.48,1.48,0,0,0,14.24,79.43Z"/><path class="cls-9" d="M26.8,80.36a2.29,2.29,0,0,1-.09.66,2.48,2.48,0,0,0-.09.7,2,2,0,0,1-.3.64c-.14.2-.31.44-.48.71a2.09,2.09,0,0,1,.48.59,2.68,2.68,0,0,1,.3.77,2.28,2.28,0,0,0,.09.56,2.43,2.43,0,0,1,.09.6,3,3,0,0,1-.09.72,2.49,2.49,0,0,0-.09.58,4.26,4.26,0,0,1-2.42,2.53,2.35,2.35,0,0,0-.56.09,2.72,2.72,0,0,1-.69.09H19.24V76.31H23a2.09,2.09,0,0,1,.69.12,2,2,0,0,1,.56.25A3.53,3.53,0,0,1,26.62,79a2.43,2.43,0,0,0,.09.6A2.89,2.89,0,0,1,26.8,80.36Zm-2.93.93a1.47,1.47,0,0,0,.33-.93,1.43,1.43,0,0,0-.33-.93A1.12,1.12,0,0,0,23,79H21.83v2.7H23A1.08,1.08,0,0,0,23.87,81.29ZM23,86.89a1.2,1.2,0,0,0,.92-.34,1.33,1.33,0,0,0,.33-1,1.11,1.11,0,0,0-.33-.84,1.23,1.23,0,0,0-.92-.32H21.83v2.46Z"/><path class="cls-9" d="M33.76,76.31H36.3V79H33.76v7.87H36.3V89.6H28.74V86.89h2.42V79H28.74V76.31h5Z"/><path class="cls-9" d="M45.86,86.89H46V89.6H38.47V76.31H41V86.89h4.85Z"/><path class="cls-9" d="M53.06,76.68a3.39,3.39,0,0,1,1.44.85,4.6,4.6,0,0,1,1,1.49,2.92,2.92,0,0,0,.08.6,3.45,3.45,0,0,1,.07.74v5.23a3.51,3.51,0,0,1-.07.72,3,3,0,0,0-.08.58,5.23,5.23,0,0,1-1,1.52,4.21,4.21,0,0,1-1.44,1,2.3,2.3,0,0,0-.6.09,2.71,2.71,0,0,1-.71.09,2,2,0,0,1-.56-.09,2.1,2.1,0,0,0-.58-.09,4.89,4.89,0,0,1-1.5-1,3.54,3.54,0,0,1-.92-1.52,1.5,1.5,0,0,1-.14-.58c0-.24,0-.48,0-.72V80.36c0-.27,0-.51,0-.74a1.76,1.76,0,0,1,.14-.6,3.22,3.22,0,0,1,.92-1.49,3.87,3.87,0,0,1,1.5-.85,3.38,3.38,0,0,1,.58-.25,1.53,1.53,0,0,1,.56-.12,2.08,2.08,0,0,1,.71.12A3.27,3.27,0,0,1,53.06,76.68Zm-2.13,9.87a1.05,1.05,0,0,0,.82.34,1.32,1.32,0,0,0,1-.34,1.27,1.27,0,0,0,.36-1V80.36a1.36,1.36,0,0,0-.36-.93,1.22,1.22,0,0,0-1-.41,1,1,0,0,0-.82.41,1.48,1.48,0,0,0-.32.93v5.23A1.37,1.37,0,0,0,50.93,86.55Z"/><path class="cls-9" d="M62.71,76.31h2.54V89.6H62.71l-2.42-6.53V89.6h-2.6V76.31h2.6l2.42,6.76Z"/><path class="cls-9" d="M72.23,76.31h2.54V79H72.23v7.87h2.54V89.6H67.21V86.89h2.43V79H67.21V76.31h5Z"/><path class="cls-9" d="M81.89,76.68A3.56,3.56,0,0,1,84.32,79a2.36,2.36,0,0,0,.08.6,2.89,2.89,0,0,1,.09.74V89.6h-2.6V84.43H79.35V89.6H76.93V80.36c0-.27,0-.51,0-.74A1.79,1.79,0,0,1,77,79,3.21,3.21,0,0,1,78,77.53a3.72,3.72,0,0,1,1.4-.85,6.37,6.37,0,0,1,.69-.25,1.88,1.88,0,0,1,.56-.12,2.19,2.19,0,0,1,.73.12A2,2,0,0,1,81.89,76.68Zm-.33,2.75a1.22,1.22,0,0,0-1.42-.3,1.17,1.17,0,0,0-.4.3,1.52,1.52,0,0,0-.28.43,1.25,1.25,0,0,0-.11.5v1.36h2.54V80.36A1.43,1.43,0,0,0,81.56,79.43Z"/></g></g></svg>