<svg xmlns="http://www.w3.org/2000/svg" viewBox="0 0 236.49 108.8"><defs><style>.cls-1{fill:#fa0;}</style></defs><g id="Capa_2" data-name="Capa 2"><g id="Capa_1-2" data-name="Capa 1"><polygon class="cls-1" points="0 93.34 45.76 69.24 78.62 23.48 107.09 23.47 90.35 45.77 134.94 22.3 123.21 0 66.88 1.18 0 93.34"/><path class="cls-1" d="M87,84.36l-2.33-7.6H73.57l-2.38,7.6h-10L74.47,47.9h9.2L96.85,84.36ZM83.28,69.93l-3.63-9.67-3.71,9.67Z"/><path class="cls-1" d="M115.68,84.4l-6.31-10.62h-2V84.4H97.58V47.6h14.73a16.1,16.1,0,0,1,6,1,10.1,10.1,0,0,1,4.19,2.67,11.08,11.08,0,0,1,2.42,4.09,16.25,16.25,0,0,1,.82,5.33A13,13,0,0,1,124.32,67a9.52,9.52,0,0,1-4.19,4.23l-.56.35,7.81,12.78Zm-8.55-20.77h2.93a5.42,5.42,0,0,0,2.87-.76,3,3,0,0,0,1.28-2.78,3.38,3.38,0,0,0-.91-2.51,4.62,4.62,0,0,0-3.24-1h-2.93Z"/><path class="cls-1" d="M153.86,84.36l-2.33-7.6H140.47l-2.37,7.6h-10L141.38,47.9h9.2l13.17,36.46Zm-3.67-14.43-3.63-9.67-3.71,9.67Z"/><path class="cls-1" d="M164.14,84.36V47.6H175V74.3h13.69V84.36Z"/><path class="cls-1" d="M190,84.36V47.52h10.41V84.36Z"/><path class="cls-1" d="M224.09,84.36,217.91,73l-6.26,11.4H199.52l11.48-18L200,47.6h12.18l5.88,11,6-11H235.5L225,66.35l11.49,18Z"/><path class="cls-1" d="M30,98.16a6.21,6.21,0,0,1,.47,1.46,8.29,8.29,0,0,1,.14,1.5,7.76,7.76,0,0,1-.15,1.49,6.45,6.45,0,0,1-.46,1.45,6.81,6.81,0,0,1-.67,1.28,7.24,7.24,0,0,1-.89,1.14,8.78,8.78,0,0,1-2.37,1.61,6.37,6.37,0,0,1-1.4.45,7.79,7.79,0,0,1-1.53.16H19.73a.44.44,0,0,1-.34-.14.49.49,0,0,1-.12-.34V94a.5.5,0,0,1,.12-.34.44.44,0,0,1,.34-.13h3.49a7,7,0,0,1,1.48.16,8.6,8.6,0,0,1,1.41.44,9.26,9.26,0,0,1,2.37,1.61,8.85,8.85,0,0,1,.89,1.13A6.4,6.4,0,0,1,30,98.16Zm-6.8,9.58a6.22,6.22,0,0,0,2.51-.51,6.71,6.71,0,0,0,2.06-1.42,6.91,6.91,0,0,0,1.39-2.11,6.66,6.66,0,0,0,0-5.16,6.79,6.79,0,0,0-1.39-2.11A6.6,6.6,0,0,0,25.73,95a6.24,6.24,0,0,0-2.53-.53h-3v13.27Z"/><path class="cls-1" d="M37.53,94a.49.49,0,0,1-.1.32.54.54,0,0,1-.26.16v13.29a.54.54,0,0,1,.26.16.42.42,0,0,1,.1.3.45.45,0,0,1-.13.34.46.46,0,0,1-.34.14h-.73a.47.47,0,0,1-.35-.14.45.45,0,0,1-.13-.34.42.42,0,0,1,.38-.46V94.47a.42.42,0,0,1-.38-.48.47.47,0,0,1,.13-.34.46.46,0,0,1,.35-.13h.73a.45.45,0,0,1,.34.13A.47.47,0,0,1,37.53,94Z"/><path class="cls-1" d="M52,102.21a2.7,2.7,0,0,1,1.42,2.36c0,.13,0,.26,0,.39a4.16,4.16,0,0,1-.06.44,4.64,4.64,0,0,1-1,1.62,5,5,0,0,1-1.65,1.2,5.74,5.74,0,0,1-1.25.42,5.56,5.56,0,0,1-1.33.16,7,7,0,0,1-1.68-.2,6.34,6.34,0,0,1-2.76-1.46v0a5.23,5.23,0,0,1-1-1.1,4.13,4.13,0,0,1-.56-1.28.4.4,0,0,1,.06-.36.85.85,0,0,1,.28-.26.82.82,0,0,1,.3.07.48.48,0,0,1,.21.18,3.77,3.77,0,0,0,.56,1,6.82,6.82,0,0,0,.86.93,6.27,6.27,0,0,0,1.07.76,5.67,5.67,0,0,0,1.16.52,6.73,6.73,0,0,0,1.46.19,5.29,5.29,0,0,0,1.45-.2,4.82,4.82,0,0,0,1.24-.55,3.59,3.59,0,0,0,1.56-2v0a.22.22,0,0,1,0-.08s0-.06,0-.09a1.69,1.69,0,0,0,.06-.39,1.45,1.45,0,0,0-.38-1,3.61,3.61,0,0,0-1-.72,8.57,8.57,0,0,0-1.39-.55c-.52-.16-1.05-.31-1.6-.45s-1-.26-1.51-.41a12.24,12.24,0,0,1-1.44-.53,7.26,7.26,0,0,1-1.23-.69,3.07,3.07,0,0,1-.85-.92,4.9,4.9,0,0,1-.3-.78,2.65,2.65,0,0,1-.14-.81,4.47,4.47,0,0,1,.18-1.23,4.18,4.18,0,0,1,1-1.56,4.76,4.76,0,0,1,1.56-1.07,5.66,5.66,0,0,1,1.06-.34,4.7,4.7,0,0,1,1-.12,5.6,5.6,0,0,1,1.79.29,4.88,4.88,0,0,1,1.31.62,5.85,5.85,0,0,1,1.13,1,6.22,6.22,0,0,1,.75,1.18,4.21,4.21,0,0,1,.38,1.26.79.79,0,0,1-.09.35.35.35,0,0,1-.35.19.6.6,0,0,1-.31-.1.52.52,0,0,1-.18-.29,3.57,3.57,0,0,0-.37-1,4.46,4.46,0,0,0-.65-.93,5.09,5.09,0,0,0-.87-.79,3.87,3.87,0,0,0-1-.53,4.88,4.88,0,0,0-1.48-.25,4.49,4.49,0,0,0-1.22.16,4.17,4.17,0,0,0-1.1.48,3.57,3.57,0,0,0-.88.76,3.44,3.44,0,0,0-.58,1h0l-.1.52a2.19,2.19,0,0,0,0,.42,2.11,2.11,0,0,0,.26,1,2.38,2.38,0,0,0,.71.78,6.06,6.06,0,0,0,1.08.57,10.59,10.59,0,0,0,1.31.43l1.41.38,2,.57a5.88,5.88,0,0,1,1.68.78Z"/><path class="cls-1" d="M67.15,107.87a.45.45,0,0,1,.13.35.45.45,0,0,1-.13.34.46.46,0,0,1-.34.14H59a.41.41,0,0,1-.31-.14.46.46,0,0,1-.14-.34V94a.48.48,0,0,1,.14-.34.4.4,0,0,1,.31-.13h7.77a.45.45,0,0,1,.34.13.54.54,0,0,1,0,.7.49.49,0,0,1-.34.12H59.49v6.15h5.9a.46.46,0,0,1,.36.15.45.45,0,0,1,.13.32.48.48,0,0,1-.13.36.52.52,0,0,1-.36.12h-5.9v6.17h7.32A.45.45,0,0,1,67.15,107.87Z"/><path class="cls-1" d="M82.62,93.52a.43.43,0,0,1,.33.13.5.5,0,0,1,.12.34v14.23a.56.56,0,0,1-.1.29.48.48,0,0,1-.29.19.6.6,0,0,1-.24-.06.4.4,0,0,1-.22-.15l-8.71-13v12.71a.48.48,0,0,1-.45.48.47.47,0,0,1-.35-.14.45.45,0,0,1-.13-.34V94a.44.44,0,0,1,.1-.3.55.55,0,0,1,.24-.15l0,0a.4.4,0,0,1,.28,0,.66.66,0,0,1,.25.15l8.7,13V94a.48.48,0,0,1,.14-.34A.45.45,0,0,1,82.62,93.52Zm-3.37-2a.43.43,0,0,1,.18.31.44.44,0,0,1-.08.37,1.1,1.1,0,0,1-1,.48,1.61,1.61,0,0,1-.4-.07,1.65,1.65,0,0,1-.35-.16.58.58,0,0,0-.2,0c-.15,0-.24,0-.27.08a.5.5,0,0,1-.36.19.41.41,0,0,1-.27-.1.71.71,0,0,1-.19-.31.34.34,0,0,1,.07-.36l0,0a1.13,1.13,0,0,1,.44-.36,1.32,1.32,0,0,1,.6-.13,1.24,1.24,0,0,1,.71.22l0,0a.56.56,0,0,0,.26.07c.13,0,.21,0,.22,0a.5.5,0,0,1,.29-.22.37.37,0,0,1,.34,0l-.1,0Z"/><path class="cls-1" d="M95,108.8a5.45,5.45,0,0,1-1.33-.17,8.12,8.12,0,0,1-1.31-.45,8.26,8.26,0,0,1-1.18-.74,6,6,0,0,1-1-.9A8.07,8.07,0,0,1,88.8,104a8.35,8.35,0,0,1-.52-2.94,8.22,8.22,0,0,1,.52-2.9,8.46,8.46,0,0,1,1.45-2.53,5.85,5.85,0,0,1,1-.91A7.78,7.78,0,0,1,92.4,94a7.3,7.3,0,0,1,1.31-.46A5.45,5.45,0,0,1,95,93.39,5.88,5.88,0,0,1,97.7,94a6.7,6.7,0,0,1,1.11.71,7.58,7.58,0,0,1,1,.94,8.68,8.68,0,0,1,1.45,2.53,8.45,8.45,0,0,1,.52,2.9,8.66,8.66,0,0,1-.52,2.93,8.33,8.33,0,0,1-1.45,2.51,7.89,7.89,0,0,1-1,.9,7.31,7.31,0,0,1-1.13.74A6,6,0,0,1,95,108.8Zm0-14.45a4.91,4.91,0,0,0-2.26.53,5.79,5.79,0,0,0-1.86,1.45,7.14,7.14,0,0,0-1.25,2.15,7.82,7.82,0,0,0,0,5.23,7,7,0,0,0,1.25,2.15,6,6,0,0,0,1.86,1.46,5.08,5.08,0,0,0,4.52,0,6,6,0,0,0,1.86-1.46,7,7,0,0,0,1.25-2.15,7.82,7.82,0,0,0,0-5.23,7.14,7.14,0,0,0-1.25-2.15,5.79,5.79,0,0,0-1.86-1.45A4.91,4.91,0,0,0,95,94.35Z"/><path class="cls-1" d="M129.29,101.78v6.48a.49.49,0,0,1-.12.34.43.43,0,0,1-.34.14.45.45,0,0,1-.35-.14.49.49,0,0,1-.12-.34v-1.59a9.33,9.33,0,0,1-1.5,1.24,6.17,6.17,0,0,1-3.19.89,5.66,5.66,0,0,1-1.34-.17,7.7,7.7,0,0,1-1.3-.45,7.57,7.57,0,0,1-1.16-.74,6.63,6.63,0,0,1-1-.9,8.44,8.44,0,0,1-1.43-2.5,8.58,8.58,0,0,1-.51-2.94,8.44,8.44,0,0,1,.51-2.9,8.86,8.86,0,0,1,1.43-2.53,7.37,7.37,0,0,1,1-.91A7.7,7.7,0,0,1,121,94a6.94,6.94,0,0,1,1.3-.46,5.66,5.66,0,0,1,1.34-.17,6,6,0,0,1,2.9.75,7,7,0,0,1,2.34,2.07.48.48,0,0,1,.09.37.53.53,0,0,1-.17.33.47.47,0,0,1-.35.06.4.4,0,0,1-.32-.2l0,0a6,6,0,0,0-2-1.81,5.17,5.17,0,0,0-2.49-.63,4.84,4.84,0,0,0-2.25.53,5.86,5.86,0,0,0-1.85,1.45,7.12,7.12,0,0,0-1.24,2.15,7.66,7.66,0,0,0,0,5.23,7,7,0,0,0,1.24,2.15,6,6,0,0,0,1.85,1.46,5,5,0,0,0,2.25.53,5.15,5.15,0,0,0,2.61-.73,6.31,6.31,0,0,0,2.08-2v-2.87h-4.63a.41.41,0,0,1-.34-.16.56.56,0,0,1-.12-.33.41.41,0,0,1,.46-.47h5.1A.41.41,0,0,1,129.29,101.78Z"/><path class="cls-1" d="M140.54,102.09l2.18,2.92,2.18,2.92a.42.42,0,0,1,.11.32.94.94,0,0,1-.13.3.39.39,0,0,1-.2.12l-.15,0a.57.57,0,0,1-.4-.21l-4.77-6.4H135.6v6.11a.42.42,0,0,1-.14.34.41.41,0,0,1-.3.13.48.48,0,0,1-.36-.13.45.45,0,0,1-.13-.34V94a.47.47,0,0,1,.13-.34.48.48,0,0,1,.36-.13h5.68a4.11,4.11,0,0,1,1.64.33,4,4,0,0,1,1.34.91,4.24,4.24,0,0,1,1.22,3,4.3,4.3,0,0,1-.31,1.66,4.16,4.16,0,0,1-.91,1.37,4.29,4.29,0,0,1-1.3.92,4.18,4.18,0,0,1-1.48.36Zm-4.94-1h5.24a3,3,0,0,0,1.27-.27,3.41,3.41,0,0,0,1.74-1.79,3.35,3.35,0,0,0,.26-1.3,3.25,3.25,0,0,0-.26-1.28,3.43,3.43,0,0,0-.7-1.06,3.15,3.15,0,0,0-1-.71,3.21,3.21,0,0,0-1.27-.26H135.6Z"/><path class="cls-1" d="M161.66,108.12a.61.61,0,0,1,0,.35.49.49,0,0,1-.34.27.48.48,0,0,1-.34-.1.53.53,0,0,1-.15-.19l-1.5-3.81H151.9l-1.48,3.81a.56.56,0,0,1-.21.19.77.77,0,0,1-.42.1.75.75,0,0,1-.2-.28.41.41,0,0,1,0-.34l1.6-4.15,4-10.24,0-.07.1-.1a.19.19,0,0,1,.13-.07h.19l.09,0a.44.44,0,0,0,.1.08.46.46,0,0,0,.07.07l0,0L160,104Zm-2.76-4.43c-.57-1.48-1.12-2.88-1.64-4.21s-1.08-2.73-1.65-4.2c-.58,1.44-1.13,2.84-1.66,4.19s-1.08,2.76-1.66,4.22Zm-2.31-12.76a.47.47,0,0,0-.29-.14.59.59,0,0,0-.32,0,1.81,1.81,0,0,1-.25.16l-.32.19-.32.21a1.84,1.84,0,0,1-.31.16.52.52,0,0,0-.19.3.39.39,0,0,0,.07.36.44.44,0,0,0,.41.23l.16,0,1.28-.79a.4.4,0,0,0,.19-.3.5.5,0,0,0-.07-.36Z"/><path class="cls-1" d="M175.31,93.65a.54.54,0,0,1,0,.7.49.49,0,0,1-.34.12h-7.32v6.15h5.9a.46.46,0,0,1,.36.15.5.5,0,0,1,.13.32.44.44,0,0,1-.49.48h-5.9v6.65a.43.43,0,0,1-.15.34.42.42,0,0,1-.3.14.41.41,0,0,1-.31-.14.46.46,0,0,1-.14-.34V94a.48.48,0,0,1,.14-.34.4.4,0,0,1,.31-.13H175A.45.45,0,0,1,175.31,93.65Z"/><path class="cls-1" d="M182.14,94a.5.5,0,0,1-.11.32.46.46,0,0,1-.26.16v13.29a.46.46,0,0,1,.26.16.42.42,0,0,1,.11.3.46.46,0,0,1-.14.34.45.45,0,0,1-.33.14h-.73a.49.49,0,0,1-.36-.14.45.45,0,0,1-.13-.34.43.43,0,0,1,.39-.46V94.47a.43.43,0,0,1-.39-.48.47.47,0,0,1,.13-.34.48.48,0,0,1,.36-.13h.73a.44.44,0,0,1,.33.13A.48.48,0,0,1,182.14,94Z"/><path class="cls-1" d="M199.06,96.21a.55.55,0,0,1,.07.38.46.46,0,0,1-.17.32.48.48,0,0,1-.36.07.46.46,0,0,1-.31-.21l0,0a6,6,0,0,0-2-1.81,5.19,5.19,0,0,0-2.48-.63,4.84,4.84,0,0,0-2.25.53,5.86,5.86,0,0,0-1.85,1.45,7.12,7.12,0,0,0-1.24,2.15,7.66,7.66,0,0,0,0,5.23,7,7,0,0,0,1.24,2.15,6,6,0,0,0,1.85,1.46,5,5,0,0,0,4.52,0,6.35,6.35,0,0,0,1.93-1.56.68.68,0,0,1,.34-.08.6.6,0,0,1,.31.06.5.5,0,0,1,.21.35.41.41,0,0,1-.17.36l0,0a6.89,6.89,0,0,1-1,1,8.42,8.42,0,0,1-1.17.8,6.39,6.39,0,0,1-2.72.63,5.66,5.66,0,0,1-1.34-.17,7.3,7.3,0,0,1-1.29-.45,7.84,7.84,0,0,1-2.16-1.64,8.66,8.66,0,0,1-1.43-2.5,8.58,8.58,0,0,1-.51-2.94,8.44,8.44,0,0,1,.51-2.9A9.11,9.11,0,0,1,189,95.67a7.37,7.37,0,0,1,1-.91,7.3,7.3,0,0,1,1.16-.74,6.61,6.61,0,0,1,1.29-.46,5.66,5.66,0,0,1,1.34-.17,6.14,6.14,0,0,1,2.94.74A6.75,6.75,0,0,1,199.06,96.21Z"/><path class="cls-1" d="M210.46,108.8a5.51,5.51,0,0,1-1.33-.17,8,8,0,0,1-1.3-.45,7.74,7.74,0,0,1-1.18-.74,5.7,5.7,0,0,1-1-.9,8.28,8.28,0,0,1-1.45-2.5,8.58,8.58,0,0,1-.51-2.94,8.44,8.44,0,0,1,.51-2.9,8.68,8.68,0,0,1,1.45-2.53,5.85,5.85,0,0,1,1-.91,7.38,7.38,0,0,1,1.17-.74,7.2,7.2,0,0,1,1.3-.46,5.51,5.51,0,0,1,1.33-.17,5.85,5.85,0,0,1,2.66.63,7.22,7.22,0,0,1,1.12.71,8.15,8.15,0,0,1,1,.94,8.46,8.46,0,0,1,1.45,2.53,8.22,8.22,0,0,1,.52,2.9,8.42,8.42,0,0,1-.52,2.93,8.12,8.12,0,0,1-1.45,2.51,8.54,8.54,0,0,1-1,.9,7.91,7.91,0,0,1-1.14.74A6,6,0,0,1,210.46,108.8Zm0-14.45a4.91,4.91,0,0,0-2.26.53,5.79,5.79,0,0,0-1.86,1.45,7.12,7.12,0,0,0-1.24,2.15,7.66,7.66,0,0,0,0,5.23,7,7,0,0,0,1.24,2.15,6,6,0,0,0,1.86,1.46,5.1,5.1,0,0,0,4.53,0,5.92,5.92,0,0,0,1.85-1.46,6.83,6.83,0,0,0,1.25-2.15,7.66,7.66,0,0,0,0-5.23,6.94,6.94,0,0,0-1.25-2.15,5.75,5.75,0,0,0-1.85-1.45A5,5,0,0,0,210.46,94.35Z"/></g></g></svg>