<svg xmlns="http://www.w3.org/2000/svg" xmlns:xlink="http://www.w3.org/1999/xlink" viewBox="0 0 255.12 141.73"><defs><style>.cls-1,.cls-3{fill:#fff;}.cls-2,.cls-4{fill:#333;}.cls-3{font-size:13.33px;font-family:IndigoRegular-Regular, Indigo Regular;}.cls-4{font-size:9px;font-family:Calibri-Bold, Calibri;font-weight:700;letter-spacing:0.1em;}.cls-5{letter-spacing:0.07em;}.cls-6{letter-spacing:0.1em;}.cls-7{letter-spacing:0.09em;}</style></defs><g id="Capa_2" data-name="Capa 2"><g id="Capa_1-2" data-name="Capa 1"><rect class="cls-1" width="255.12" height="141.73"/><ellipse class="cls-2" cx="66.92" cy="70.87" rx="60.1" ry="70.87"/><rect class="cls-2" width="66.92" height="141.73"/><polygon class="cls-1" points="18.58 83.39 32.7 75.96 42.84 61.84 51.62 61.84 46.46 68.71 60.22 61.47 56.59 54.59 39.22 54.96 18.58 83.39"/><text class="cls-3" transform="translate(37.47 80.62)">ARRALAX</text><path class="cls-1" d="M35.44,83.75a2.14,2.14,0,0,1,.15.47,2.42,2.42,0,0,1,0,.47,2.59,2.59,0,0,1,0,.48,3.53,3.53,0,0,1-.15.46,3.17,3.17,0,0,1-.21.41,2.54,2.54,0,0,1-.29.36,2.49,2.49,0,0,1-.75.51,2.16,2.16,0,0,1-.45.15,2.61,2.61,0,0,1-.48,0h-1.1a.14.14,0,0,1-.11,0A.14.14,0,0,1,32,87V82.43a.14.14,0,0,1,.15-.15h1.11a1.93,1.93,0,0,1,.47,0,2.15,2.15,0,0,1,.45.14,2.49,2.49,0,0,1,.75.51,2.54,2.54,0,0,1,.29.36A3.17,3.17,0,0,1,35.44,83.75Zm-2.17,3a1.94,1.94,0,0,0,.8-.16,2.15,2.15,0,0,0,.66-.45,2.28,2.28,0,0,0,.44-.68,2,2,0,0,0,.17-.82,2.08,2.08,0,0,0-.17-.82,2.36,2.36,0,0,0-.44-.67,2.15,2.15,0,0,0-.66-.45,1.87,1.87,0,0,0-.81-.17h-.95V86.8Z"/><path class="cls-1" d="M37.82,82.43a.17.17,0,0,1,0,.1l-.08,0v4.23a.14.14,0,0,1,.08,0,.12.12,0,0,1,0,.09.14.14,0,0,1,0,.11.14.14,0,0,1-.11,0h-.23a.14.14,0,0,1-.11,0,.14.14,0,0,1,0-.11.13.13,0,0,1,.12-.14V82.58a.15.15,0,0,1,0-.3h.23a.14.14,0,0,1,.15.15Z"/><path class="cls-1" d="M42.44,85a.86.86,0,0,1,.45.75v.13s0,.09,0,.14a1.37,1.37,0,0,1-.31.51A1.43,1.43,0,0,1,42,87a1.57,1.57,0,0,1-.4.14,2,2,0,0,1-.42,0,1.9,1.9,0,0,1-.54-.07,1.92,1.92,0,0,1-.87-.46h0a2,2,0,0,1-.31-.35,1.65,1.65,0,0,1-.18-.41.17.17,0,0,1,0-.12l.09-.08a.16.16,0,0,1,.09,0,.1.1,0,0,1,.07,0,1.06,1.06,0,0,0,.18.33,1.93,1.93,0,0,0,.27.3,2.62,2.62,0,0,0,.34.24,2.11,2.11,0,0,0,.38.17,1.94,1.94,0,0,0,.46.06,1.77,1.77,0,0,0,.46-.07,1.61,1.61,0,0,0,.4-.17,1.33,1.33,0,0,0,.3-.28,1,1,0,0,0,.19-.36h0v0s0,0,0,0a.83.83,0,0,0,0-.13.43.43,0,0,0-.12-.31,1.16,1.16,0,0,0-.32-.24,3.12,3.12,0,0,0-.44-.17l-.51-.14-.48-.13-.46-.17a3.61,3.61,0,0,1-.39-.22,1.23,1.23,0,0,1-.27-.29c0-.07-.06-.16-.09-.25a1,1,0,0,1-.05-.26,1.32,1.32,0,0,1,.06-.39,1.22,1.22,0,0,1,.3-.5,1.58,1.58,0,0,1,.5-.34,2.13,2.13,0,0,1,.33-.11l.34,0a1.79,1.79,0,0,1,.57.09,2,2,0,0,1,.42.19,1.73,1.73,0,0,1,.35.31,1.47,1.47,0,0,1,.24.37,1.3,1.3,0,0,1,.13.41.26.26,0,0,1,0,.11.12.12,0,0,1-.12.06.12.12,0,0,1-.09,0,.15.15,0,0,1-.06-.09,1,1,0,0,0-.12-.31,1.21,1.21,0,0,0-.2-.3,2.18,2.18,0,0,0-.28-.25,1.3,1.3,0,0,0-.33-.17,1.71,1.71,0,0,0-.47-.08,1.6,1.6,0,0,0-.39,0,1.84,1.84,0,0,0-.35.15A1.31,1.31,0,0,0,40,83a1.06,1.06,0,0,0-.18.33h0l0,.16a.62.62,0,0,0,0,.13.67.67,0,0,0,.08.33.68.68,0,0,0,.23.25,1.56,1.56,0,0,0,.34.18,2.59,2.59,0,0,0,.42.14l.44.12.62.18a1.91,1.91,0,0,1,.54.25Z"/><path class="cls-1" d="M47.25,86.84a.15.15,0,0,1,0,.11.14.14,0,0,1,0,.11.14.14,0,0,1-.11,0H44.67a.14.14,0,0,1-.1,0,.14.14,0,0,1,0-.11V82.43a.14.14,0,0,1,0-.11.13.13,0,0,1,.1,0h2.47a.15.15,0,1,1,0,.3H44.81v2h1.88a.12.12,0,0,1,.11,0,.16.16,0,0,1,.05.1.17.17,0,0,1-.05.12.12.12,0,0,1-.11,0H44.81v2h2.33A.18.18,0,0,1,47.25,86.84Z"/><path class="cls-1" d="M52.17,82.28a.14.14,0,0,1,.11,0,.18.18,0,0,1,0,.11V87a.21.21,0,0,1,0,.1.15.15,0,0,1-.09.06l-.07,0L52,87l-2.77-4.13v4a.14.14,0,0,1,0,.11.14.14,0,0,1-.1,0,.14.14,0,0,1-.11,0A.14.14,0,0,1,49,87V82.43a.17.17,0,0,1,0-.1l.08,0h0a.1.1,0,0,1,.09,0,.2.2,0,0,1,.08,0L52,86.47v-4a.14.14,0,0,1,0-.11A.15.15,0,0,1,52.17,82.28Zm-1.07-.65a.14.14,0,0,1,.06.1.14.14,0,0,1,0,.12.35.35,0,0,1-.31.15l-.13,0-.11,0-.07,0s-.07,0-.08,0a.17.17,0,0,1-.12.06.11.11,0,0,1-.08,0,.21.21,0,0,1-.06-.1.11.11,0,0,1,0-.12h0a.3.3,0,0,1,.14-.11.41.41,0,0,1,.19-.05.38.38,0,0,1,.23.08h0l.09,0h.07a.16.16,0,0,1,.09-.07.14.14,0,0,1,.11,0h0Z"/><path class="cls-1" d="M56.13,87.14a2,2,0,0,1-.43,0,2.86,2.86,0,0,1-.41-.15,3,3,0,0,1-.38-.23,2.16,2.16,0,0,1-.31-.29,2.53,2.53,0,0,1-.46-.8,2.78,2.78,0,0,1,0-1.86,2.78,2.78,0,0,1,.46-.8,1.82,1.82,0,0,1,.32-.29,2.92,2.92,0,0,1,.37-.24,2,2,0,0,1,.41-.14,1.54,1.54,0,0,1,.43-.05,1.88,1.88,0,0,1,.84.19,2.41,2.41,0,0,1,.36.23,3,3,0,0,1,.32.3,2.78,2.78,0,0,1,.46.8,2.63,2.63,0,0,1,0,1.86,2.53,2.53,0,0,1-.46.8,2.26,2.26,0,0,1-.32.29,2.21,2.21,0,0,1-.36.23A1.89,1.89,0,0,1,56.13,87.14Zm0-4.6a1.47,1.47,0,0,0-.72.17,1.79,1.79,0,0,0-.6.46,2.28,2.28,0,0,0-.39.68,2.4,2.4,0,0,0,0,1.67,2.16,2.16,0,0,0,.39.68,2,2,0,0,0,.6.47,1.59,1.59,0,0,0,.72.17,1.65,1.65,0,0,0,.72-.17,2,2,0,0,0,.59-.47,2.16,2.16,0,0,0,.39-.68,2.4,2.4,0,0,0,0-1.67,2.28,2.28,0,0,0-.39-.68,1.85,1.85,0,0,0-.59-.46A1.53,1.53,0,0,0,56.13,82.54Z"/><path class="cls-1" d="M67,84.9V87a.21.21,0,0,1,0,.11.18.18,0,0,1-.11,0,.16.16,0,0,1-.11,0,.15.15,0,0,1,0-.11v-.51a3.64,3.64,0,0,1-.48.4,2,2,0,0,1-1,.28,2.1,2.1,0,0,1-.43,0,2.13,2.13,0,0,1-.78-.38,3,3,0,0,1-.32-.29,2.72,2.72,0,0,1-.45-.8,2.63,2.63,0,0,1,0-1.86A2.11,2.11,0,0,1,64,82.67a2.92,2.92,0,0,1,.37-.24,2,2,0,0,1,.41-.14,1.58,1.58,0,0,1,.43-.05,1.88,1.88,0,0,1,.92.23,2.22,2.22,0,0,1,.74.66.14.14,0,0,1,0,.12.16.16,0,0,1-.05.11.19.19,0,0,1-.11,0,.1.1,0,0,1-.1-.06h0a1.85,1.85,0,0,0-.64-.58,1.68,1.68,0,0,0-.79-.2,1.5,1.5,0,0,0-.72.17,1.85,1.85,0,0,0-.59.46,2.28,2.28,0,0,0-.39.68,2.4,2.4,0,0,0,0,1.67,2.16,2.16,0,0,0,.39.68,2,2,0,0,0,.59.47,1.62,1.62,0,0,0,.72.17,1.59,1.59,0,0,0,.83-.24,2.05,2.05,0,0,0,.66-.62v-.92H65.26c-.05,0-.09,0-.11,0a.14.14,0,0,1,0-.1.13.13,0,0,1,.15-.15h1.62C67,84.76,67,84.81,67,84.9Z"/><path class="cls-1" d="M70.61,85l.69.93.69.93s.05.08,0,.1a.69.69,0,0,1,0,.1l-.07,0h0a.19.19,0,0,1-.13-.07l-1.52-2H69v2a.16.16,0,0,1-.05.11.18.18,0,0,1-.1,0,.21.21,0,0,1-.11,0,.15.15,0,0,1,0-.11V82.43a.14.14,0,0,1,0-.11.15.15,0,0,1,.11,0H70.7a1.35,1.35,0,0,1,.53.1,1.37,1.37,0,0,1,.42.29,1.42,1.42,0,0,1,.29.43,1.56,1.56,0,0,1,.1.53,1.32,1.32,0,0,1-.1.53,1.26,1.26,0,0,1-.29.43,1.31,1.31,0,0,1-.41.3,1.29,1.29,0,0,1-.47.11ZM69,84.7H70.7a1,1,0,0,0,.41-.09,1,1,0,0,0,.33-.23,1,1,0,0,0,.22-.34.94.94,0,0,0,.08-.41,1,1,0,0,0-.08-.41,1.06,1.06,0,0,0-.22-.33,1.23,1.23,0,0,0-.33-.23,1.15,1.15,0,0,0-.41-.08H69Z"/><path class="cls-1" d="M77.33,86.92a.14.14,0,0,1,0,.11s0,.07-.11.09a.15.15,0,0,1-.1,0,.13.13,0,0,1,0-.06l-.48-1.22H74.22L73.75,87a.14.14,0,0,1-.07.06.23.23,0,0,1-.13,0,.15.15,0,0,1-.06-.09.14.14,0,0,1,0-.11L74,85.6l1.28-3.26s0,0,0,0l0,0,0,0h.09l0,0,0,0h0l1.29,3.27Zm-.88-1.41-.52-1.34c-.17-.42-.34-.87-.53-1.33l-.53,1.33c-.16.43-.34.88-.53,1.34Zm-.74-4.06a.13.13,0,0,0-.09,0,.17.17,0,0,0-.1,0l-.08,0-.1.06-.1.07-.1.05a.15.15,0,0,0-.06.09.12.12,0,0,0,0,.12.14.14,0,0,0,.13.07h0l.41-.25a.21.21,0,0,0,.06-.1.17.17,0,0,0,0-.12Z"/><path class="cls-1" d="M81.67,82.32a.17.17,0,0,1,0,.22.13.13,0,0,1-.1,0H79.23v2h1.88a.16.16,0,0,1,.12,0,.21.21,0,0,1,0,.1.21.21,0,0,1,0,.12.16.16,0,0,1-.12,0H79.23V87a.14.14,0,0,1,0,.11.13.13,0,0,1-.2,0A.14.14,0,0,1,79,87V82.43a.14.14,0,0,1,0-.11.13.13,0,0,1,.1,0h2.48A.13.13,0,0,1,81.67,82.32Z"/><path class="cls-1" d="M83.85,82.43a.18.18,0,0,1,0,.1l-.08,0v4.23a.14.14,0,0,1,.08,0,.13.13,0,0,1,0,.09.14.14,0,0,1,0,.11.12.12,0,0,1-.1,0h-.24a.16.16,0,0,1-.11,0,.14.14,0,0,1,0-.11.13.13,0,0,1,.12-.14V82.58a.16.16,0,0,1-.08-.26.15.15,0,0,1,.11,0h.24a.12.12,0,0,1,.1,0A.14.14,0,0,1,83.85,82.43Z"/><path class="cls-1" d="M89.23,83.13a.17.17,0,0,1,0,.12.14.14,0,0,1,0,.11.2.2,0,0,1-.11,0,.13.13,0,0,1-.1-.07h0a1.85,1.85,0,0,0-.64-.58,1.72,1.72,0,0,0-.79-.2,1.5,1.5,0,0,0-.72.17,1.85,1.85,0,0,0-.59.46,2.28,2.28,0,0,0-.39.68,2.4,2.4,0,0,0,0,1.67,2.16,2.16,0,0,0,.39.68,2,2,0,0,0,.59.47,1.62,1.62,0,0,0,.72.17,1.54,1.54,0,0,0,.72-.18,2.24,2.24,0,0,0,.62-.5l.1,0s.08,0,.1,0a.16.16,0,0,1,.07.11.16.16,0,0,1,0,.11h0a2.36,2.36,0,0,1-.32.31,3.69,3.69,0,0,1-.38.26,2,2,0,0,1-.86.2,2.1,2.1,0,0,1-.43,0,2.13,2.13,0,0,1-.78-.38,3,3,0,0,1-.32-.29,2.72,2.72,0,0,1-.45-.8,2.63,2.63,0,0,1,0-1.86,2.11,2.11,0,0,1,.77-1.09,2.92,2.92,0,0,1,.37-.24,2,2,0,0,1,.41-.14,1.58,1.58,0,0,1,.43-.05,1.89,1.89,0,0,1,.93.23A2.22,2.22,0,0,1,89.23,83.13Z"/><path class="cls-1" d="M92.86,87.14a2,2,0,0,1-.42,0,3.52,3.52,0,0,1-.42-.15,2.85,2.85,0,0,1-.37-.23,1.74,1.74,0,0,1-.31-.29,2.36,2.36,0,0,1-.46-.8,2.63,2.63,0,0,1,0-1.86,2.56,2.56,0,0,1,.46-.8,1.74,1.74,0,0,1,.31-.29,3.87,3.87,0,0,1,.37-.24,2.3,2.3,0,0,1,.42-.14,1.51,1.51,0,0,1,.42-.05,1.8,1.8,0,0,1,1.2.42,2.35,2.35,0,0,1,.33.3,3,3,0,0,1,.46.8,2.78,2.78,0,0,1,0,1.86,2.74,2.74,0,0,1-.46.8l-.32.29a3.61,3.61,0,0,1-.36.23A1.93,1.93,0,0,1,92.86,87.14Zm0-4.6a1.53,1.53,0,0,0-.72.17,1.75,1.75,0,0,0-.59.46,2.3,2.3,0,0,0-.4.68,2.56,2.56,0,0,0,0,1.67,2.18,2.18,0,0,0,.4.68,1.92,1.92,0,0,0,.59.47,1.65,1.65,0,0,0,.72.17,1.62,1.62,0,0,0,.72-.17,1.92,1.92,0,0,0,.59-.47,2.18,2.18,0,0,0,.4-.68,2.35,2.35,0,0,0-.4-2.35,1.75,1.75,0,0,0-.59-.46A1.5,1.5,0,0,0,92.86,82.54Z"/><path class="cls-2" d="M154.87,63.32a2,2,0,0,1,.47.68,2.37,2.37,0,0,1,.16.84v2.35a2.12,2.12,0,0,1-.63,1.53,2.6,2.6,0,0,1-.69.46,2.12,2.12,0,0,1-.83.17,2.08,2.08,0,0,1-.82-.17,2.6,2.6,0,0,1-.69-.46,2.16,2.16,0,0,1-.47-.7,2.31,2.31,0,0,1-.16-.83V64.84a2.37,2.37,0,0,1,.16-.84,1.89,1.89,0,0,1,.47-.68,2.23,2.23,0,0,1,.69-.47,2.07,2.07,0,0,1,.82-.16,2.12,2.12,0,0,1,.83.16A2.23,2.23,0,0,1,154.87,63.32Zm-1.52,5.61a1.67,1.67,0,0,0,.67-.13,1.79,1.79,0,0,0,.56-.38,1.69,1.69,0,0,0,.5-1.23V64.84a1.69,1.69,0,0,0-.5-1.23,1.76,1.76,0,0,0-.56-.37,1.67,1.67,0,0,0-1.34,0,1.72,1.72,0,0,0-.55.37,1.9,1.9,0,0,0-.37.55,1.72,1.72,0,0,0-.13.68v2.35a1.72,1.72,0,0,0,.13.68,1.9,1.9,0,0,0,.37.55,1.75,1.75,0,0,0,.55.38A1.67,1.67,0,0,0,153.35,68.93Z"/><path class="cls-2" d="M157.52,66.33a2,2,0,0,1-.47-.69,2.15,2.15,0,0,1-.16-.8,2.26,2.26,0,0,1,.16-.82,2,2,0,0,1,.47-.69,1.91,1.91,0,0,1,.67-.46,2.06,2.06,0,0,1,1.64,0,2,2,0,0,1,.68.46A2,2,0,0,1,161,64a2.07,2.07,0,0,1,.16.82,1.87,1.87,0,0,1-.38,1.17.1.1,0,0,0,0,0v0l-.14.17-2.45,3h0a.19.19,0,0,1-.13.12.21.21,0,0,1-.17-.06h0a.23.23,0,0,1-.09-.14.15.15,0,0,1,.07-.17v0l1.69-2.07a1.27,1.27,0,0,1-.26,0H159a2.07,2.07,0,0,1-.82-.16A1.79,1.79,0,0,1,157.52,66.33ZM159,63.12a1.65,1.65,0,0,0-.66.13,1.75,1.75,0,0,0-.91.92,1.63,1.63,0,0,0-.13.67,1.65,1.65,0,0,0,.13.66,1.58,1.58,0,0,0,.37.54,1.7,1.7,0,0,0,.54.36,1.67,1.67,0,0,0,1.36,0,2.21,2.21,0,0,0,.58-.4l.07-.13a1.57,1.57,0,0,0,.27-.49,1.39,1.39,0,0,0,.1-.53,1.64,1.64,0,0,0-.14-.67,1.75,1.75,0,0,0-.91-.92A1.63,1.63,0,0,0,159,63.12Z"/><path class="cls-2" d="M165.63,65.59a2.23,2.23,0,0,1,.48.71,2.19,2.19,0,0,1,.17.85,2.12,2.12,0,0,1-.17.83,2.16,2.16,0,0,1-.48.72,2.12,2.12,0,0,1-.71.48,2.15,2.15,0,0,1-.85.17,2.19,2.19,0,0,1-1.54-.65,2.16,2.16,0,0,1-.48-.72,2,2,0,0,1-.17-.83,2,2,0,0,1,.18-.84,2.3,2.3,0,0,1,.47-.72,2,2,0,0,1,.35-.28,2.56,2.56,0,0,1,.39-.22,1.44,1.44,0,0,1-.38-.46,1.25,1.25,0,0,1-.15-.61,1.31,1.31,0,0,1,.11-.52,1.42,1.42,0,0,1,.29-.43,1.34,1.34,0,0,1,.42-.28,1.4,1.4,0,0,1,1,0,1.52,1.52,0,0,1,.43.28,1.39,1.39,0,0,1,.28.43,1.31,1.31,0,0,1,.11.52,1.38,1.38,0,0,1-.14.62,1.27,1.27,0,0,1-.38.45,1.72,1.72,0,0,1,.38.2C165.4,65.38,165.51,65.48,165.63,65.59Zm-1.55,3.34a1.64,1.64,0,0,0,.69-.14,2,2,0,0,0,.57-.38,1.68,1.68,0,0,0,.38-.56,1.69,1.69,0,0,0,0-1.39,1.73,1.73,0,0,0-.38-.57,2.22,2.22,0,0,0-.57-.39,1.8,1.8,0,0,0-1.39,0,2,2,0,0,0-.56.39,1.75,1.75,0,0,0-.39.57,1.8,1.8,0,0,0,0,1.39,1.71,1.71,0,0,0,.39.56,1.79,1.79,0,0,0,.56.38A1.65,1.65,0,0,0,164.08,68.93ZM163.16,64a.86.86,0,0,0,.07.36.79.79,0,0,0,.2.3,1,1,0,0,0,.29.19.82.82,0,0,0,.35.08.86.86,0,0,0,.36-.08.91.91,0,0,0,.3-.19.79.79,0,0,0,.2-.3A.86.86,0,0,0,165,64a.84.84,0,0,0-.07-.35.88.88,0,0,0-.2-.3.93.93,0,0,0-.3-.2.86.86,0,0,0-.36-.07.81.81,0,0,0-.35.07,1,1,0,0,0-.29.2.88.88,0,0,0-.2.3A.84.84,0,0,0,163.16,64Z"/><path class="cls-2" d="M171.33,68.92a.25.25,0,0,1,0,.16.2.2,0,0,1,0,.14.2.2,0,0,1-.15.06h-3.5a.19.19,0,0,1-.19-.2,8,8,0,0,1,.06-1.12,1.51,1.51,0,0,1,.28-.67,1.75,1.75,0,0,1,.54-.45c.23-.13.52-.27.86-.42a.09.09,0,0,0,.06,0l.42-.19.49-.23a1.67,1.67,0,0,0,.55-.57,1.43,1.43,0,0,0,.22-.77,1.45,1.45,0,0,0-.12-.59,1.51,1.51,0,0,0-.33-.49,1.67,1.67,0,0,0-.5-.33,1.54,1.54,0,0,0-1.19,0,1.51,1.51,0,0,0-.49.33A1.54,1.54,0,0,0,168,64a1.45,1.45,0,0,0-.12.59.21.21,0,0,1-.06.16.17.17,0,0,1-.14.06.2.2,0,0,1-.14-.06.25.25,0,0,1,0-.16,1.92,1.92,0,0,1,.14-.75,1.66,1.66,0,0,1,.42-.63,2.17,2.17,0,0,1,.63-.42,1.86,1.86,0,0,1,.75-.14,1.9,1.9,0,0,1,1.39.57,1.76,1.76,0,0,1,.41.63,1.9,1.9,0,0,1,.15.75,2,2,0,0,1-.07.53,1.8,1.8,0,0,1-.2.47,1.9,1.9,0,0,1-.31.39,2,2,0,0,1-.41.3,3,3,0,0,1-.36.18l-.32.15-.14.06-.17.07h0c-.32.14-.58.27-.79.38a1.31,1.31,0,0,0-.45.37,1.17,1.17,0,0,0-.2.49,4.3,4.3,0,0,0-.09.84h3.3A.25.25,0,0,1,171.33,68.92Z"/><path class="cls-2" d="M175,65.09a2.56,2.56,0,0,1,.59.23,2.07,2.07,0,0,1,.52.36,2.19,2.19,0,0,1,.46.69,2.16,2.16,0,0,1,0,1.63,2.09,2.09,0,0,1-.46.69,2.14,2.14,0,0,1-.69.46,2.16,2.16,0,0,1-1.63,0,2.38,2.38,0,0,1-.69-.46,2.12,2.12,0,0,1-.62-1.51,2.31,2.31,0,0,1,.1-.64h0a.16.16,0,0,1,.11-.13.18.18,0,0,1,.16,0,.13.13,0,0,1,.09.09.27.27,0,0,1,0,.14,1.7,1.7,0,0,0,.42,1.75,1.58,1.58,0,0,0,.54.37,1.59,1.59,0,0,0,.66.14,1.67,1.67,0,0,0,.67-.14,1.58,1.58,0,0,0,.54-.37,1.71,1.71,0,0,0,.51-1.21,1.59,1.59,0,0,0-.14-.66,1.58,1.58,0,0,0-.37-.54,1.62,1.62,0,0,0-.55-.37,1.52,1.52,0,0,0-.67-.14h0l-.05,0a.13.13,0,0,1-.07-.06.25.25,0,0,1,0-.07l0,0s0-.08,0-.09l0,0,1.65-2H173a.2.2,0,0,1-.15-.06.18.18,0,0,1-.06-.15.21.21,0,0,1,.21-.21h3.51a.13.13,0,0,1,.12,0l.06,0,0,.05a.11.11,0,0,1,0,0V63Z"/><path class="cls-2" d="M182.33,67.76a.18.18,0,0,1,.2.21c0,.13-.07.19-.2.19h-.53v.94a.2.2,0,0,1-.06.15.21.21,0,0,1-.16.06.2.2,0,0,1-.15-.06.25.25,0,0,1-.05-.15v-.94h-3.3s0,0-.05-.05a.1.1,0,0,1,0,0,.43.43,0,0,0,0,0v-.07s0,0,0,0l0-.06,3.38-5,0,0c0-.05.06-.07.13-.07h0l0,0,0,0,.09.09v4.91Zm-1,0V63.6c-.46.69-.93,1.38-1.41,2.08s-.95,1.39-1.41,2.08Z"/><path class="cls-2" d="M188,63,184,69.2h0a.2.2,0,0,1-.19.12.15.15,0,0,1-.11,0,.18.18,0,0,1-.05-.28l3.74-5.85h-3.33a.19.19,0,0,1-.15-.06.21.21,0,0,1-.06-.16.2.2,0,0,1,.06-.15.19.19,0,0,1,.15-.06h3.72l0,0,.07,0,0,0,0,.06v0a.05.05,0,0,1,0,0h0Z"/><path class="cls-2" d="M190.64,69.1a.2.2,0,0,1,0,.15.2.2,0,0,1-.15.06h-.78a.2.2,0,0,1-.15-.06.2.2,0,0,1,.15-.35h.2V63.28l-.22.15-.21.13-.08,0a.18.18,0,0,1-.17-.08.29.29,0,0,1,0-.16.18.18,0,0,1,.09-.13l.73-.46h0l0,0,.1,0h0l0,0,0,0,0,.05a.19.19,0,0,0,0,.07v6h.17A.18.18,0,0,1,190.64,69.1Z"/><path class="cls-2" d="M196.27,63l-4,6.19h0a.22.22,0,0,1-.19.12.15.15,0,0,1-.11,0A.18.18,0,0,1,192,69l3.74-5.85h-3.33a.21.21,0,0,1-.22-.22.2.2,0,0,1,.06-.15.21.21,0,0,1,.16-.06h3.72l0,0,.06,0a.1.1,0,0,1,0,0l0,.06v0a.05.05,0,0,1,0,0h0Z"/><path class="cls-2" d="M153.12,75.72a1.78,1.78,0,0,1,.78.18,1.84,1.84,0,0,1,.66.53h0a2.37,2.37,0,0,1,.45.77A2.75,2.75,0,0,1,155,79a2.52,2.52,0,0,1-.45.78,2,2,0,0,1-.64.52,1.84,1.84,0,0,1-.8.18,1.67,1.67,0,0,1-.79-.19,2,2,0,0,1-.66-.51l-.09-.12-.09-.12v2.66a.2.2,0,0,1-.06.15.25.25,0,0,1-.16,0,.24.24,0,0,1-.13,0,.18.18,0,0,1-.07-.15V75.93a.18.18,0,0,1,.07-.15.19.19,0,0,1,.13-.06.21.21,0,0,1,.16.06.2.2,0,0,1,.06.15v.73l.09-.12.09-.1a2,2,0,0,1,.68-.54A1.71,1.71,0,0,1,153.12,75.72Zm0,4.35a1.28,1.28,0,0,0,.63-.16,1.51,1.51,0,0,0,.52-.42,1.93,1.93,0,0,0,.35-.63,2.13,2.13,0,0,0,.13-.76,2.19,2.19,0,0,0-.13-.77,1.88,1.88,0,0,0-.35-.62,1.51,1.51,0,0,0-.52-.42,1.32,1.32,0,0,0-1.26,0,1.57,1.57,0,0,0-.51.42,1.88,1.88,0,0,0-.35.62,2.19,2.19,0,0,0-.13.77,2.13,2.13,0,0,0,.13.76,1.93,1.93,0,0,0,.35.63,1.57,1.57,0,0,0,.51.42A1.28,1.28,0,0,0,153.12,80.07Z"/><path class="cls-2" d="M160.06,80l.05,0,.13,0a.18.18,0,0,1,.17,0,.21.21,0,0,1,.07.14q0,.21-.24.21a.87.87,0,0,1-.3,0,.52.52,0,0,1-.19-.12.42.42,0,0,1-.09-.14.84.84,0,0,1,0-.12v0s0,0,0,0v-.06a1.45,1.45,0,0,1-.5.4,3.09,3.09,0,0,1-1.24.22h-.21a1.55,1.55,0,0,1-.48-.13,1.24,1.24,0,0,1-.66-.69,1.35,1.35,0,0,1-.09-.5,1.3,1.3,0,0,1,.28-.83,1.18,1.18,0,0,1,.74-.46l.13,0h.23l.55-.06a5.25,5.25,0,0,0,.62-.12,2.61,2.61,0,0,0,.41-.2.39.39,0,0,0,.19-.24s0-.06,0-.09a.88.88,0,0,0-.1-.4,1.23,1.23,0,0,0-.28-.33,1.38,1.38,0,0,0-.42-.21,1.84,1.84,0,0,0-.53-.08,1.48,1.48,0,0,0-.72.18,1,1,0,0,0-.48.47.2.2,0,0,1-.13.09.22.22,0,0,1-.16,0,.19.19,0,0,1-.07-.13.33.33,0,0,1,0-.17,1.44,1.44,0,0,1,.27-.34,1.83,1.83,0,0,1,.36-.26,1.7,1.7,0,0,1,.44-.18,2.61,2.61,0,0,1,.48,0,2.11,2.11,0,0,1,.66.1,1.9,1.9,0,0,1,.55.28,1.43,1.43,0,0,1,.38.47,1.14,1.14,0,0,1,.14.56v.09s0,0,0,.06h0c0,.22,0,.45,0,.69s0,.45,0,.64,0,.2,0,.34,0,.28,0,.43a3.71,3.71,0,0,0,0,.38A.73.73,0,0,0,160.06,80Zm-2.35.09a2.16,2.16,0,0,0,1.5-.37,1.26,1.26,0,0,0,.31-1.24v-.59a3,3,0,0,1-.41.18,3.22,3.22,0,0,1-.66.13l-.6,0-.28,0a1.75,1.75,0,0,0-.28.13,1.21,1.21,0,0,0-.24.21.92.92,0,0,0-.16.27.73.73,0,0,0-.07.29.94.94,0,0,0,.07.34.92.92,0,0,0,.19.28.83.83,0,0,0,.28.21A1,1,0,0,0,157.71,80.08Z"/><path class="cls-2" d="M163.65,75.74a.17.17,0,0,1,.14.06.19.19,0,0,1,.06.15.2.2,0,0,1-.06.15.17.17,0,0,1-.14.06,1.58,1.58,0,0,0-1.11.45,1.63,1.63,0,0,0-.33.49,1.58,1.58,0,0,0-.12.61v2.55a.2.2,0,0,1-.06.15.18.18,0,0,1-.13.06.21.21,0,0,1-.21-.21V75.93a.21.21,0,0,1,.21-.21.18.18,0,0,1,.13.06.2.2,0,0,1,.06.15v.59l.18-.21a1.71,1.71,0,0,1,.62-.42A1.94,1.94,0,0,1,163.65,75.74Z"/><path class="cls-2" d="M167,75.74a.2.2,0,0,1,.15.06.19.19,0,0,1,.06.15.21.21,0,0,1-.21.21,1.54,1.54,0,0,0-.61.12,1.51,1.51,0,0,0-.49.33,1.87,1.87,0,0,0-.34.49,1.58,1.58,0,0,0-.12.61v2.55a.2.2,0,0,1-.06.15.18.18,0,0,1-.13.06.17.17,0,0,1-.14-.06.2.2,0,0,1-.06-.15V75.93a.2.2,0,0,1,.06-.15.17.17,0,0,1,.14-.06.18.18,0,0,1,.13.06.2.2,0,0,1,.06.15v.59l.18-.21a1.66,1.66,0,0,1,.63-.42A1.93,1.93,0,0,1,167,75.74Z"/><path class="cls-2" d="M171.42,80l.06,0,.12,0a.17.17,0,0,1,.17,0,.19.19,0,0,1,.08.14q0,.21-.24.21a.84.84,0,0,1-.3,0,.52.52,0,0,1-.19-.12.31.31,0,0,1-.09-.14.84.84,0,0,1,0-.12v0a.09.09,0,0,1,0,0v-.06a1.42,1.42,0,0,1-.49.4,3.09,3.09,0,0,1-1.24.22H169a1.54,1.54,0,0,1-.49-.13,1.39,1.39,0,0,1-.39-.28,1.25,1.25,0,0,1-.26-.41,1.42,1.42,0,0,1,.18-1.33,1.24,1.24,0,0,1,.74-.46l.14,0h.23l.55-.06a5.67,5.67,0,0,0,.62-.12,2.13,2.13,0,0,0,.4-.2.41.41,0,0,0,.2-.24v-.09a.87.87,0,0,0-.09-.4,1.23,1.23,0,0,0-.28-.33,1.33,1.33,0,0,0-.43-.21,1.72,1.72,0,0,0-.52-.08,1.48,1.48,0,0,0-.72.18,1,1,0,0,0-.48.47.22.22,0,0,1-.14.09.19.19,0,0,1-.15,0,.19.19,0,0,1-.07-.13.33.33,0,0,1,0-.17,2.24,2.24,0,0,1,.27-.34,1.64,1.64,0,0,1,.37-.26,1.57,1.57,0,0,1,.44-.18,2.61,2.61,0,0,1,.48,0,2.05,2.05,0,0,1,.65.1,1.84,1.84,0,0,1,.56.28,1.43,1.43,0,0,1,.38.47,1.25,1.25,0,0,1,.14.56v.09s0,0,0,.06h0c0,.22,0,.45,0,.69v1l0,.43c0,.14,0,.27,0,.38A1.16,1.16,0,0,0,171.42,80Zm-2.35.09a2.16,2.16,0,0,0,1.5-.37,1.24,1.24,0,0,0,.32-1.24v-.26a.19.19,0,0,1,0-.08V78s0-.09,0-.16a3,3,0,0,1-.41.18,3.51,3.51,0,0,1-.66.13l-.6,0-.28,0a1.43,1.43,0,0,0-.28.13,1.21,1.21,0,0,0-.24.21,1.24,1.24,0,0,0-.17.27.72.72,0,0,0-.06.29.88.88,0,0,0,.26.62.83.83,0,0,0,.28.21A1,1,0,0,0,169.07,80.08Z"/><path class="cls-2" d="M173.23,80.47a.18.18,0,0,1-.13-.06.18.18,0,0,1-.07-.15V74.19a.18.18,0,0,1,.07-.15.18.18,0,0,1,.13-.06.22.22,0,0,1,.14.06.2.2,0,0,1,.06.15v6.07a.2.2,0,0,1-.06.15A.22.22,0,0,1,173.23,80.47Z"/><path class="cls-2" d="M178.41,80l.05,0,.13,0a.18.18,0,0,1,.17,0,.17.17,0,0,1,.07.14c0,.14-.08.21-.23.21a.9.9,0,0,1-.31,0,.52.52,0,0,1-.19-.12.42.42,0,0,1-.09-.14.84.84,0,0,1,0-.12v-.14a1.45,1.45,0,0,1-.5.4,3.09,3.09,0,0,1-1.24.22H176a1.55,1.55,0,0,1-.48-.13,1.6,1.6,0,0,1-.4-.28,1.43,1.43,0,0,1-.26-.41,1.35,1.35,0,0,1-.09-.5,1.3,1.3,0,0,1,.28-.83,1.18,1.18,0,0,1,.74-.46l.13,0h.24l.54-.06a5.25,5.25,0,0,0,.62-.12,2.61,2.61,0,0,0,.41-.2.39.39,0,0,0,.19-.24.28.28,0,0,0,0-.09.77.77,0,0,0-.1-.4,1.23,1.23,0,0,0-.28-.33,1.38,1.38,0,0,0-.42-.21,1.77,1.77,0,0,0-.52-.08,1.49,1.49,0,0,0-.73.18,1,1,0,0,0-.48.47.18.18,0,0,1-.13.09.22.22,0,0,1-.16,0,.19.19,0,0,1-.07-.13.33.33,0,0,1,0-.17,1.44,1.44,0,0,1,.27-.34,1.83,1.83,0,0,1,.36-.26,1.7,1.7,0,0,1,.44-.18,2.63,2.63,0,0,1,.49,0,2.1,2.1,0,0,1,.65.1,1.78,1.78,0,0,1,.55.28,1.43,1.43,0,0,1,.38.47,1.14,1.14,0,0,1,.14.56v.09s0,0,0,.06h0c0,.22,0,.45,0,.69s0,.45,0,.64,0,.2,0,.34,0,.28,0,.43a3.71,3.71,0,0,0,0,.38A.73.73,0,0,0,178.41,80Zm-2.35.09a2.16,2.16,0,0,0,1.5-.37,1.26,1.26,0,0,0,.31-1.24v-.59a3,3,0,0,1-.41.18,3.22,3.22,0,0,1-.66.13l-.6,0-.28,0a1.75,1.75,0,0,0-.28.13,1,1,0,0,0-.4.48.72.72,0,0,0-.06.29.93.93,0,0,0,.06.34.92.92,0,0,0,.19.28.94.94,0,0,0,.28.21A1,1,0,0,0,176.06,80.08Z"/><path class="cls-2" d="M183.14,75.77a.2.2,0,0,1,.08.13.21.21,0,0,1,0,.15l-1.47,2.16L183,80.14a.27.27,0,0,1,.05.15.15.15,0,0,1-.09.13.18.18,0,0,1-.28,0l-.63-.91-.62-.91-.62.92-.63.9a.24.24,0,0,1-.17.09H180l-.06,0a.17.17,0,0,1-.08-.13.22.22,0,0,1,0-.16l1.33-1.93-.36-.53-.37-.52-.37-.56c-.14-.19-.26-.38-.38-.55a.19.19,0,0,1,0-.15.22.22,0,0,1,.08-.14.16.16,0,0,1,.16,0,.32.32,0,0,1,.13.08l.4.59.39.58c.12.15.22.29.3.41l.3.44,1.39-2a.25.25,0,0,1,.13-.09A.13.13,0,0,1,183.14,75.77Z"/><path class="cls-2" d="M188.36,75.72a.22.22,0,0,1,.14.06.2.2,0,0,1,.06.15v4.33a.2.2,0,0,1-.06.15.22.22,0,0,1-.14.06.18.18,0,0,1-.13-.06.18.18,0,0,1-.07-.15V79.7l-.17.19a1.77,1.77,0,0,1-.63.43,1.93,1.93,0,0,1-.75.15,2,2,0,0,1-.77-.15,1.86,1.86,0,0,1-.63-.43,1.74,1.74,0,0,1-.42-.63,1.93,1.93,0,0,1-.15-.75V75.93a.25.25,0,0,1,.05-.15.2.2,0,0,1,.15-.06.22.22,0,0,1,.14.06.2.2,0,0,1,.06.15V78.5a1.54,1.54,0,0,0,.12.61,1.49,1.49,0,0,0,.34.49,1.58,1.58,0,0,0,1.11.45,1.53,1.53,0,0,0,.6-.12,1.56,1.56,0,0,0,.5-.33,1.63,1.63,0,0,0,.33-.49,1.54,1.54,0,0,0,.12-.61V75.93a.18.18,0,0,1,.07-.15A.18.18,0,0,1,188.36,75.72Z"/><path class="cls-2" d="M192.18,80.34c-.09.24-.19.47-.29.71s-.19.48-.27.7a2.75,2.75,0,0,1-.15.25,1.37,1.37,0,0,1-.2.22,1.09,1.09,0,0,1-.59.17h-.2a.2.2,0,0,1-.14-.06.25.25,0,0,1-.05-.15.24.24,0,0,1,.05-.14.2.2,0,0,1,.14-.06h.2a.61.61,0,0,0,.35-.11.73.73,0,0,0,.22-.3c0-.1.07-.2.12-.31l.13-.31.27-.69L190.05,76a.32.32,0,0,1,0-.13.4.4,0,0,1,.1-.12.22.22,0,0,1,.18,0,.22.22,0,0,1,.1.09L192,79.7l1.54-3.87h0a.23.23,0,0,1,.11-.11.19.19,0,0,1,.16,0,.23.23,0,0,1,.1.12.22.22,0,0,1,0,.16Z"/><path class="cls-2" d="M202,77.17a3,3,0,0,1-.15.92,3.35,3.35,0,0,1-.4.88h0a.94.94,0,0,1-.36.32,1,1,0,0,1-.49.12h-.18a1.19,1.19,0,0,1-.53-.23.84.84,0,0,1-.23-.23.89.89,0,0,1-.15-.29h0v0a2.2,2.2,0,0,1-.32.21,1.83,1.83,0,0,1-.41.12,2.86,2.86,0,0,1-.53,0h-.16a.81.81,0,0,1-.37-.09,1.19,1.19,0,0,1-.31-.23,1,1,0,0,1-.21-.33,1,1,0,0,1-.08-.37,1,1,0,0,1,.25-.67,1.05,1.05,0,0,1,.61-.35l.22,0,.4,0a2.34,2.34,0,0,0,.46-.09,1.28,1.28,0,0,0,.31-.15.22.22,0,0,0,.1-.19.54.54,0,0,0-.07-.27,1,1,0,0,0-.2-.22,1.06,1.06,0,0,0-.28-.15,1.42,1.42,0,0,0-.36,0,1,1,0,0,0-.52.14.82.82,0,0,0-.34.35.2.2,0,0,1-.27,0,.2.2,0,0,1-.09-.29,1.36,1.36,0,0,1,.5-.48,1.48,1.48,0,0,1,.72-.18,1.57,1.57,0,0,1,.49.07,1.75,1.75,0,0,1,.43.22,1.17,1.17,0,0,1,.3.37.85.85,0,0,1,.11.44v0s0,0,0,0v.06c0,.19,0,.36,0,.52s0,.3,0,.43v.24a1.62,1.62,0,0,0,0,.22,3.38,3.38,0,0,0,0,.5v0a0,0,0,0,1,0,0v0l0,0a.54.54,0,0,0,.2.28.61.61,0,0,0,.34.14.72.72,0,0,0,.36,0,.59.59,0,0,0,.25-.22,3.34,3.34,0,0,0,.35-.74,2.87,2.87,0,0,0,.12-.83,2.83,2.83,0,0,0-.22-1.12,3.06,3.06,0,0,0-.62-.91,3,3,0,0,0-.92-.63,2.8,2.8,0,0,0-1.12-.23,2.84,2.84,0,0,0-1.12.23A3,3,0,0,0,196,76.05a2.83,2.83,0,0,0-.22,1.12,2.64,2.64,0,0,0,.23,1.12,2.82,2.82,0,0,0,.62.92,2.79,2.79,0,0,0,2,.84,2.83,2.83,0,0,0,1.56-.44h0a.19.19,0,0,1,.17-.06.22.22,0,0,1,.14.08.19.19,0,0,1,0,.16.24.24,0,0,1-.1.14,3.44,3.44,0,0,1-.85.39,3.34,3.34,0,0,1-.94.14,3.9,3.9,0,0,1-.66-.07,5,5,0,0,1-.62-.19,3.79,3.79,0,0,1-1.06-.71,2.63,2.63,0,0,1-.39-.49,3.37,3.37,0,0,1-.3-.56,3.33,3.33,0,0,1-.21-.63,2.94,2.94,0,0,1-.07-.65,2.85,2.85,0,0,1,.07-.64,2.65,2.65,0,0,1,.2-.64,3.76,3.76,0,0,1,.3-.56,2.69,2.69,0,0,1,.39-.5,4.15,4.15,0,0,1,1.06-.7,3.43,3.43,0,0,1,1.28-.26,3.79,3.79,0,0,1,.65.07,4.32,4.32,0,0,1,.64.19,4.4,4.4,0,0,1,.56.31,4.54,4.54,0,0,1,.48.39,3.06,3.06,0,0,1,.4.49c.11.18.21.37.31.56A3.42,3.42,0,0,1,202,77.17Zm-3,1.27a.86.86,0,0,0,.26-.2.54.54,0,0,0,.15-.3c0-.06,0-.14,0-.23v-.62l-.24.11a1.86,1.86,0,0,1-.48.09l-.48,0H198a.62.62,0,0,0-.37.22.56.56,0,0,0-.15.39.61.61,0,0,0,.17.42.62.62,0,0,0,.43.2,4,4,0,0,0,.52,0A1.34,1.34,0,0,0,199,78.44Z"/><path class="cls-2" d="M207.57,80.42a1.91,1.91,0,0,1-.15.76,1.81,1.81,0,0,1-.43.63,1.91,1.91,0,0,1-.63.43,1.94,1.94,0,0,1-.76.14,1.88,1.88,0,0,1-1.06-.31,2,2,0,0,1-.72-.86.18.18,0,0,1,0-.16.23.23,0,0,1,.11-.11h0a.17.17,0,0,1,.17,0,.18.18,0,0,1,.1.11h0a1.57,1.57,0,0,0,.58.69,1.5,1.5,0,0,0,.85.26,1.58,1.58,0,0,0,.61-.12,1.66,1.66,0,0,0,.49-.34A1.77,1.77,0,0,0,207,81a1.54,1.54,0,0,0,.12-.61v-.89l-.18.23a2.12,2.12,0,0,1-.67.52,1.79,1.79,0,0,1-.78.19,1.65,1.65,0,0,1-.79-.19,2.21,2.21,0,0,1-.67-.52,2.69,2.69,0,0,1-.57-1.67,2.66,2.66,0,0,1,.15-.9,2.61,2.61,0,0,1,.42-.77,2.09,2.09,0,0,1,.67-.53,1.76,1.76,0,0,1,.79-.18,1.66,1.66,0,0,1,.78.19,1.9,1.9,0,0,1,.67.53l.08.07,0,0,0,0s0,0,0,.09v-.59a.19.19,0,0,1,.21-.21.2.2,0,0,1,.15.06.17.17,0,0,1,0,.15Zm-2-.37a1.32,1.32,0,0,0,.62-.15,1.61,1.61,0,0,0,.52-.42,2,2,0,0,0,.35-.61,2.13,2.13,0,0,0,.13-.76v0a2.16,2.16,0,0,0-.48-1.37,1.61,1.61,0,0,0-.52-.42,1.32,1.32,0,0,0-.62-.15,1.26,1.26,0,0,0-.63.16,1.61,1.61,0,0,0-.52.42,2.24,2.24,0,0,0,0,2.78,1.92,1.92,0,0,0,.52.42A1.36,1.36,0,0,0,205.54,80.05Z"/><path class="cls-2" d="M214.84,76.33a2.35,2.35,0,0,1,.36.64,2.24,2.24,0,0,1,.12.73v2.56a.25.25,0,0,1,0,.15.2.2,0,0,1-.15.06.21.21,0,0,1-.16-.06.25.25,0,0,1-.05-.15V77.71a1.77,1.77,0,0,0-.1-.61,1.93,1.93,0,0,0-.27-.49,1.26,1.26,0,0,0-.4-.33,1,1,0,0,0-.48-.12,1,1,0,0,0-.49.12,1.42,1.42,0,0,0-.41.33,1.67,1.67,0,0,0-.27.49,1.77,1.77,0,0,0-.1.61v2.55a.25.25,0,0,1,0,.15.21.21,0,0,1-.16.06.2.2,0,0,1-.15-.06.25.25,0,0,1-.05-.15V77.71a2.05,2.05,0,0,0-.1-.61,1.93,1.93,0,0,0-.27-.49,1.38,1.38,0,0,0-.4-.33,1.06,1.06,0,0,0-1,0,1.38,1.38,0,0,0-.4.33,1.93,1.93,0,0,0-.27.49,2.05,2.05,0,0,0-.1.61v2.55a.2.2,0,0,1-.06.15.2.2,0,0,1-.14.06.21.21,0,0,1-.21-.21V75.93a.21.21,0,0,1,.21-.21.2.2,0,0,1,.14.06.2.2,0,0,1,.06.15v.48l.07-.08a1.75,1.75,0,0,1,.56-.43,1.28,1.28,0,0,1,.63-.16,1.45,1.45,0,0,1,.63.15,1.68,1.68,0,0,1,.56.44l.15.21.12.23.13-.24a1,1,0,0,1,.15-.21h0a1.75,1.75,0,0,1,.55-.44,1.44,1.44,0,0,1,.65-.15,1.38,1.38,0,0,1,.62.15A1.79,1.79,0,0,1,214.84,76.33Z"/><path class="cls-2" d="M220.44,80l.05,0,.13,0a.18.18,0,0,1,.17,0,.21.21,0,0,1,.07.14q0,.21-.24.21a.87.87,0,0,1-.3,0,.52.52,0,0,1-.19-.12.42.42,0,0,1-.09-.14.84.84,0,0,1,0-.12v-.14a1.45,1.45,0,0,1-.5.4,3.09,3.09,0,0,1-1.24.22H218a1.55,1.55,0,0,1-.48-.13,1.6,1.6,0,0,1-.4-.28,1.43,1.43,0,0,1-.26-.41,1.35,1.35,0,0,1-.09-.5,1.3,1.3,0,0,1,.28-.83,1.18,1.18,0,0,1,.74-.46l.13,0h.23l.55-.06a5.25,5.25,0,0,0,.62-.12,2.61,2.61,0,0,0,.41-.2.39.39,0,0,0,.19-.24s0-.06,0-.09a.77.77,0,0,0-.1-.4,1.23,1.23,0,0,0-.28-.33,1.38,1.38,0,0,0-.42-.21,1.84,1.84,0,0,0-.53-.08,1.48,1.48,0,0,0-.72.18,1,1,0,0,0-.48.47.18.18,0,0,1-.13.09.22.22,0,0,1-.16,0,.19.19,0,0,1-.07-.13.33.33,0,0,1,0-.17,1.44,1.44,0,0,1,.27-.34,1.83,1.83,0,0,1,.36-.26,1.7,1.7,0,0,1,.44-.18,2.61,2.61,0,0,1,.48,0,2.11,2.11,0,0,1,.66.1,1.9,1.9,0,0,1,.55.28,1.43,1.43,0,0,1,.38.47,1.14,1.14,0,0,1,.14.56v.09s0,0,0,.06h0c0,.22,0,.45,0,.69s0,.45,0,.64,0,.2,0,.34,0,.28,0,.43a3.71,3.71,0,0,0,0,.38A.73.73,0,0,0,220.44,80Zm-2.35.09a2.16,2.16,0,0,0,1.5-.37,1.26,1.26,0,0,0,.31-1.24v-.59a3,3,0,0,1-.41.18,3.22,3.22,0,0,1-.66.13l-.6,0-.28,0a1.75,1.75,0,0,0-.28.13,1,1,0,0,0-.4.48.72.72,0,0,0-.06.29.93.93,0,0,0,.06.34.92.92,0,0,0,.19.28.94.94,0,0,0,.28.21A1,1,0,0,0,218.09,80.08Z"/><path class="cls-2" d="M222.42,75.27a.19.19,0,0,1-.13-.08.19.19,0,0,1-.06-.13v-.87a.2.2,0,0,1,.06-.15.19.19,0,0,1,.13-.06.2.2,0,0,1,.14.06.2.2,0,0,1,.06.15v.87a.19.19,0,0,1-.06.13A.19.19,0,0,1,222.42,75.27Zm0,5.2a.19.19,0,0,1-.13-.06.2.2,0,0,1-.06-.15V75.89a.2.2,0,0,1,.06-.15.19.19,0,0,1,.13-.06.2.2,0,0,1,.14.06.2.2,0,0,1,.06.15v4.37a.2.2,0,0,1-.06.15A.2.2,0,0,1,222.42,80.47Z"/><path class="cls-2" d="M224.13,80.47a.19.19,0,0,1-.13-.06.2.2,0,0,1-.06-.15V74.19A.2.2,0,0,1,224,74a.19.19,0,0,1,.13-.06.2.2,0,0,1,.14.06.2.2,0,0,1,.06.15v6.07a.2.2,0,0,1-.06.15A.2.2,0,0,1,224.13,80.47Z"/><path class="cls-2" d="M225.87,80a.25.25,0,0,1,.18.08.24.24,0,0,1,.08.18.22.22,0,0,1-.08.18.25.25,0,0,1-.43-.18.27.27,0,0,1,.07-.18A.25.25,0,0,1,225.87,80Z"/><path class="cls-2" d="M230.71,79.39a.26.26,0,0,1,.13-.06.2.2,0,0,1,.14,0,.15.15,0,0,1,.09.14.21.21,0,0,1,0,.14,2.21,2.21,0,0,1-.7.63,1.76,1.76,0,0,1-.86.23,1.84,1.84,0,0,1-.79-.19,2.06,2.06,0,0,1-.66-.53,2.67,2.67,0,0,1,0-3.34,1.84,1.84,0,0,1,.66-.53,1.79,1.79,0,0,1,.79-.18,1.67,1.67,0,0,1,.87.23,2.16,2.16,0,0,1,.72.63.19.19,0,0,1,0,.13.35.35,0,0,1-.07.12.15.15,0,0,1-.16,0,.24.24,0,0,1-.13-.09,1.87,1.87,0,0,0-.57-.48,1.25,1.25,0,0,0-1.29,0,1.64,1.64,0,0,0-.52.43,2.24,2.24,0,0,0-.35.63,2.44,2.44,0,0,0-.13.77,2.22,2.22,0,0,0,.48,1.39,1.61,1.61,0,0,0,.52.42,1.28,1.28,0,0,0,.63.16,1.38,1.38,0,0,0,.67-.18,2.17,2.17,0,0,0,.56-.49Z"/><path class="cls-2" d="M234.26,75.72a1.78,1.78,0,0,1,.78.18,1.84,1.84,0,0,1,.66.53h0a2.3,2.3,0,0,1,.44.76,2.49,2.49,0,0,1,.16.91,2.53,2.53,0,0,1-.16.91,2.3,2.3,0,0,1-.44.76,2,2,0,0,1-.65.53,1.78,1.78,0,0,1-1.6,0,2,2,0,0,1-.66-.53,2.46,2.46,0,0,1-.43-.76,2.76,2.76,0,0,1-.15-.91,2.82,2.82,0,0,1,.15-.92,2.3,2.3,0,0,1,.43-.75h0a2.13,2.13,0,0,1,.68-.54A1.78,1.78,0,0,1,234.26,75.72Zm0,4.35a1.29,1.29,0,0,0,.64-.16,1.61,1.61,0,0,0,.52-.42,2.22,2.22,0,0,0,.48-1.39,2.44,2.44,0,0,0-.13-.77,2.24,2.24,0,0,0-.35-.63,1.64,1.64,0,0,0-.52-.43,1.29,1.29,0,0,0-.64-.16,1.26,1.26,0,0,0-.63.16,1.64,1.64,0,0,0-.52.43,2,2,0,0,0-.35.63,2.19,2.19,0,0,0-.13.77,2.22,2.22,0,0,0,.48,1.39,1.61,1.61,0,0,0,.52.42A1.26,1.26,0,0,0,234.26,80.07Z"/><path class="cls-2" d="M243.55,76.33a2.35,2.35,0,0,1,.36.64,2.24,2.24,0,0,1,.12.73v2.56a.2.2,0,0,1-.06.15.17.17,0,0,1-.14.06.21.21,0,0,1-.16-.06.25.25,0,0,1,0-.15V77.71a1.77,1.77,0,0,0-.1-.61,1.93,1.93,0,0,0-.27-.49,1.26,1.26,0,0,0-.4-.33,1,1,0,0,0-.48-.12,1,1,0,0,0-.49.12,1.3,1.3,0,0,0-.41.33,1.67,1.67,0,0,0-.27.49,1.77,1.77,0,0,0-.1.61v2.55a.25.25,0,0,1,0,.15.21.21,0,0,1-.16.06.2.2,0,0,1-.15-.06.2.2,0,0,1-.05-.15V77.71a2.05,2.05,0,0,0-.1-.61,1.93,1.93,0,0,0-.27-.49,1.38,1.38,0,0,0-.4-.33,1.06,1.06,0,0,0-1,0,1.38,1.38,0,0,0-.4.33,1.93,1.93,0,0,0-.27.49,2.05,2.05,0,0,0-.1.61v2.55a.2.2,0,0,1-.06.15.2.2,0,0,1-.14.06.21.21,0,0,1-.21-.21V75.93a.21.21,0,0,1,.21-.21.2.2,0,0,1,.14.06.2.2,0,0,1,.06.15v.48l.07-.08a1.75,1.75,0,0,1,.56-.43,1.28,1.28,0,0,1,.63-.16,1.45,1.45,0,0,1,.63.15,1.68,1.68,0,0,1,.56.44l.15.21.12.23.13-.24a1,1,0,0,1,.15-.21h0a1.75,1.75,0,0,1,.55-.44,1.44,1.44,0,0,1,.65-.15,1.38,1.38,0,0,1,.62.15A1.91,1.91,0,0,1,243.55,76.33Z"/><path class="cls-2" d="M156.83,87.27a.19.19,0,0,1,.13.1.26.26,0,0,1,0,.17l-1.34,4.31-.1.1a.16.16,0,0,1-.11.07.25.25,0,0,1-.13,0,.3.3,0,0,1-.07-.11l-1.15-3.67c-.11.37-.23.73-.34,1.08s-.22.71-.34,1.07l-.47,1.52a.19.19,0,0,1-.2.15.21.21,0,0,1-.2-.15l-1.34-4.33h0a.16.16,0,0,1,0-.15.46.46,0,0,1,.12-.12.27.27,0,0,1,.14,0,.53.53,0,0,1,.11.09l1.14,3.7.53-1.7.62-2a.41.41,0,0,1,.07-.11.25.25,0,0,1,.13,0,.21.21,0,0,1,.2.15l1.15,3.7.4-1.31c.14-.42.27-.86.4-1.29l.33-1.07a.53.53,0,0,1,.12-.14.21.21,0,0,1,.15,0Z"/><path class="cls-2" d="M164,87.27a.22.22,0,0,1,.13.1.25.25,0,0,1,0,.17l-1.34,4.31-.09.1a.19.19,0,0,1-.12.07.21.21,0,0,1-.12,0,.21.21,0,0,1-.07-.11l-1.16-3.67q-.17.55-.33,1.08c-.11.35-.23.71-.34,1.07l-.48,1.52a.19.19,0,0,1-.2.15.2.2,0,0,1-.19-.15l-1.34-4.33h0a.17.17,0,0,1,0-.15.34.34,0,0,1,.12-.12.24.24,0,0,1,.13,0,.35.35,0,0,1,.11.09l1.14,3.7.54-1.7.62-2a.26.26,0,0,1,.07-.11.21.21,0,0,1,.12,0,.21.21,0,0,1,.2.15l1.15,3.7c.14-.45.28-.88.41-1.31s.26-.86.4-1.29l.33-1.07a.53.53,0,0,1,.12-.14.21.21,0,0,1,.15,0Z"/><path class="cls-2" d="M171.14,87.27a.19.19,0,0,1,.13.1.26.26,0,0,1,0,.17L170,91.85l-.1.1a.16.16,0,0,1-.11.07.25.25,0,0,1-.13,0,.3.3,0,0,1-.07-.11L168.4,88.2c-.11.37-.23.73-.34,1.08s-.22.71-.34,1.07l-.47,1.52a.19.19,0,0,1-.2.15.21.21,0,0,1-.2-.15l-1.34-4.33h0a.16.16,0,0,1,0-.15.46.46,0,0,1,.12-.12.27.27,0,0,1,.14,0,.53.53,0,0,1,.11.09l1.14,3.7.53-1.7.62-2a.41.41,0,0,1,.07-.11.25.25,0,0,1,.13,0,.21.21,0,0,1,.2.15l1.15,3.7.4-1.31c.14-.42.27-.86.4-1.29l.33-1.07a.53.53,0,0,1,.12-.14.21.21,0,0,1,.15,0Z"/><path class="cls-2" d="M173,91.53a.27.27,0,0,1,.26.26.25.25,0,0,1-.08.18A.27.27,0,0,1,173,92a.24.24,0,0,1-.25-.25.27.27,0,0,1,.07-.18A.25.25,0,0,1,173,91.53Z"/><path class="cls-2" d="M176.6,87.27a1.78,1.78,0,0,1,.78.18,1.85,1.85,0,0,1,.67.53h0a2.54,2.54,0,0,1,.44.77,2.68,2.68,0,0,1,.15.89,2.74,2.74,0,0,1-.15.9,2.34,2.34,0,0,1-.44.77,2,2,0,0,1-.65.53,1.8,1.8,0,0,1-.8.18,1.67,1.67,0,0,1-.79-.19,1.93,1.93,0,0,1-.66-.52l-.09-.11-.09-.12v2.66a.17.17,0,0,1-.06.14.19.19,0,0,1-.15.06.2.2,0,0,1-.14-.06.17.17,0,0,1-.07-.14V87.48a.21.21,0,0,1,.07-.15.2.2,0,0,1,.14-.06.19.19,0,0,1,.15.06.2.2,0,0,1,.06.15v.73l.09-.12.09-.11a2.13,2.13,0,0,1,.68-.53A1.71,1.71,0,0,1,176.6,87.27Zm0,4.35a1.32,1.32,0,0,0,.64-.16,1.61,1.61,0,0,0,.52-.42,2.22,2.22,0,0,0,.48-1.39,2.44,2.44,0,0,0-.13-.77,2.33,2.33,0,0,0-.35-.62,1.61,1.61,0,0,0-.52-.42,1.32,1.32,0,0,0-.64-.16,1.28,1.28,0,0,0-.63.16,1.57,1.57,0,0,0-.51.42,2.08,2.08,0,0,0-.35.62,2.19,2.19,0,0,0-.13.77,2.22,2.22,0,0,0,.48,1.39,1.57,1.57,0,0,0,.51.42A1.28,1.28,0,0,0,176.6,91.62Z"/><path class="cls-2" d="M183.54,91.54l.06,0h.12a.22.22,0,0,1,.17,0,.17.17,0,0,1,.07.14c0,.14-.08.21-.23.21a.9.9,0,0,1-.31,0,.41.41,0,0,1-.18-.12.33.33,0,0,1-.1-.14.3.3,0,0,1,0-.12s0,0,0,0v-.11a1.45,1.45,0,0,1-.5.4,3.09,3.09,0,0,1-1.24.22h-.21a1.55,1.55,0,0,1-.48-.13,1.33,1.33,0,0,1-.66-.69,1.35,1.35,0,0,1-.09-.5,1.3,1.3,0,0,1,.28-.83,1.21,1.21,0,0,1,.74-.46l.13,0h.24l.55-.06a6.18,6.18,0,0,0,.62-.12,2.48,2.48,0,0,0,.4-.2.39.39,0,0,0,.19-.24.28.28,0,0,0,0-.09.77.77,0,0,0-.1-.4,1.1,1.1,0,0,0-.28-.33,1.38,1.38,0,0,0-.42-.21,1.77,1.77,0,0,0-.52-.08,1.49,1.49,0,0,0-.73.18,1,1,0,0,0-.48.47.18.18,0,0,1-.13.09.22.22,0,0,1-.16,0,.23.23,0,0,1-.07-.13.33.33,0,0,1,0-.17,1.44,1.44,0,0,1,.27-.34,2.42,2.42,0,0,1,.36-.27,2.2,2.2,0,0,1,.45-.17,1.86,1.86,0,0,1,.48,0,2.05,2.05,0,0,1,.65.1,1.78,1.78,0,0,1,.55.28,1.43,1.43,0,0,1,.38.47,1.14,1.14,0,0,1,.14.56v.15h0c0,.22,0,.45,0,.69s0,.45,0,.64,0,.2,0,.34,0,.28,0,.42,0,.27,0,.39A.73.73,0,0,0,183.54,91.54Zm-2.35.09a2.16,2.16,0,0,0,1.5-.37A1.26,1.26,0,0,0,183,90v-.15c0-.05,0-.09,0-.11v-.17a1,1,0,0,1,0-.16,2.17,2.17,0,0,1-.42.17,3.25,3.25,0,0,1-.65.14l-.61.05-.28,0a1.75,1.75,0,0,0-.28.13.93.93,0,0,0-.23.21,1,1,0,0,0-.17.27.72.72,0,0,0-.06.29,1,1,0,0,0,.06.34,1.07,1.07,0,0,0,.19.28.94.94,0,0,0,.28.21A1,1,0,0,0,181.19,91.63Z"/><path class="cls-2" d="M187.13,87.29a.2.2,0,0,1,.15.06.19.19,0,0,1,.06.15.21.21,0,0,1-.21.21,1.54,1.54,0,0,0-.61.12,1.51,1.51,0,0,0-.49.33,1.39,1.39,0,0,0-.34.49,1.54,1.54,0,0,0-.12.61v2.55a.2.2,0,0,1-.06.15.18.18,0,0,1-.13.06.2.2,0,0,1-.15-.06.2.2,0,0,1,0-.15V87.48a.2.2,0,0,1,0-.15.2.2,0,0,1,.15-.06.18.18,0,0,1,.13.06.2.2,0,0,1,.06.15v.59l.18-.21a1.66,1.66,0,0,1,.63-.42A1.86,1.86,0,0,1,187.13,87.29Z"/><path class="cls-2" d="M190.43,87.29a.2.2,0,0,1,.15.06.19.19,0,0,1,.06.15.21.21,0,0,1-.21.21,1.54,1.54,0,0,0-.61.12,1.54,1.54,0,0,0-.82.82,1.39,1.39,0,0,0-.13.61v2.55a.25.25,0,0,1-.05.15.19.19,0,0,1-.13.06.21.21,0,0,1-.21-.21V87.48a.21.21,0,0,1,.21-.21.19.19,0,0,1,.13.06.25.25,0,0,1,.05.15v.59l.18-.21a1.66,1.66,0,0,1,.63-.42A1.93,1.93,0,0,1,190.43,87.29Z"/><path class="cls-2" d="M194.9,91.54l.06,0h.12a.23.23,0,0,1,.18,0,.21.21,0,0,1,.07.14q0,.21-.24.21a.87.87,0,0,1-.3,0,.52.52,0,0,1-.19-.12.42.42,0,0,1-.09-.14.84.84,0,0,1,0-.12v0a.09.09,0,0,1,0,0v-.06a1.33,1.33,0,0,1-.49.4,3.09,3.09,0,0,1-1.24.22h-.21a1.61,1.61,0,0,1-.49-.13,1.39,1.39,0,0,1-.39-.28,1.29,1.29,0,0,1-.35-.91,1.3,1.3,0,0,1,.28-.83,1.19,1.19,0,0,1,.73-.46l.14,0h.23l.55-.06a5.25,5.25,0,0,0,.62-.12,2.13,2.13,0,0,0,.4-.2.41.41,0,0,0,.2-.24s0-.06,0-.09a.88.88,0,0,0-.1-.4,1.1,1.1,0,0,0-.28-.33,1.38,1.38,0,0,0-.42-.21,1.84,1.84,0,0,0-.53-.08,1.48,1.48,0,0,0-.72.18,1,1,0,0,0-.48.47.2.2,0,0,1-.13.09.22.22,0,0,1-.16,0,.19.19,0,0,1-.07-.13.33.33,0,0,1,0-.17,1.44,1.44,0,0,1,.27-.34,2,2,0,0,1,.36-.27,2.11,2.11,0,0,1,.44-.17,2,2,0,0,1,.48,0,2.16,2.16,0,0,1,.66.1,1.9,1.9,0,0,1,.55.28,1.43,1.43,0,0,1,.38.47,1.25,1.25,0,0,1,.14.56v.09s0,0,0,.06h0q0,.33,0,.69c0,.24,0,.45,0,.64s0,.2,0,.34,0,.28,0,.42,0,.27,0,.39S194.89,91.5,194.9,91.54Zm-2.34.09a2.13,2.13,0,0,0,1.49-.37,1.24,1.24,0,0,0,.32-1.24v-.26s0-.05,0-.08v-.09s0-.09,0-.16a2.09,2.09,0,0,1-.41.17,3.2,3.2,0,0,1-.66.14l-.6.05-.28,0a1.43,1.43,0,0,0-.28.13,1.21,1.21,0,0,0-.24.21.92.92,0,0,0-.16.27.59.59,0,0,0-.07.29,1,1,0,0,0,.07.34,1.07,1.07,0,0,0,.19.28.83.83,0,0,0,.28.21A1,1,0,0,0,192.56,91.63Z"/><path class="cls-2" d="M196.71,92a.19.19,0,0,1-.13-.06.2.2,0,0,1-.06-.15V85.73a.2.2,0,0,1,.06-.14.19.19,0,0,1,.13-.06.21.21,0,0,1,.2.2v6.08a.2.2,0,0,1-.06.15A.2.2,0,0,1,196.71,92Z"/><path class="cls-2" d="M201.89,91.54l.06,0h.12a.22.22,0,0,1,.17,0,.17.17,0,0,1,.07.14c0,.14-.08.21-.23.21a.9.9,0,0,1-.31,0,.41.41,0,0,1-.18-.12.33.33,0,0,1-.1-.14.3.3,0,0,1,0-.12s0,0,0,0v-.11a1.45,1.45,0,0,1-.5.4,3.06,3.06,0,0,1-1.24.22h-.21a1.55,1.55,0,0,1-.48-.13,1.39,1.39,0,0,1-.39-.28,1.36,1.36,0,0,1-.26-.41,1.18,1.18,0,0,1-.1-.5,1.3,1.3,0,0,1,.28-.83,1.21,1.21,0,0,1,.74-.46l.13,0h.24l.55-.06a6.18,6.18,0,0,0,.62-.12,2.48,2.48,0,0,0,.4-.2.39.39,0,0,0,.19-.24.28.28,0,0,0,0-.09.77.77,0,0,0-.1-.4A1.1,1.1,0,0,0,201,88a1.38,1.38,0,0,0-.42-.21,1.77,1.77,0,0,0-.52-.08,1.49,1.49,0,0,0-.73.18,1,1,0,0,0-.48.47.18.18,0,0,1-.13.09.22.22,0,0,1-.16,0,.23.23,0,0,1-.07-.13.33.33,0,0,1,0-.17,1.44,1.44,0,0,1,.27-.34,2.42,2.42,0,0,1,.36-.27,2.2,2.2,0,0,1,.45-.17,1.91,1.91,0,0,1,.48,0,2.05,2.05,0,0,1,.65.1,1.78,1.78,0,0,1,.55.28,1.47,1.47,0,0,1,.39.47,1.25,1.25,0,0,1,.14.56v.09a.35.35,0,0,1,0,.06h0c0,.22,0,.45,0,.69s0,.45,0,.64,0,.2,0,.34,0,.28,0,.42,0,.27,0,.39A.73.73,0,0,0,201.89,91.54Zm-2.35.09a2.16,2.16,0,0,0,1.5-.37,1.26,1.26,0,0,0,.32-1.24v-.15a.31.31,0,0,0,0-.11v-.17a1,1,0,0,1,0-.16,1.94,1.94,0,0,1-.42.17,3.25,3.25,0,0,1-.65.14l-.61.05-.28,0a1.66,1.66,0,0,0-.27.13,1.21,1.21,0,0,0-.24.21,1,1,0,0,0-.17.27.72.72,0,0,0-.06.29,1,1,0,0,0,.06.34,1.07,1.07,0,0,0,.19.28.94.94,0,0,0,.28.21A1,1,0,0,0,199.54,91.63Z"/><path class="cls-2" d="M206.62,87.32a.2.2,0,0,1,.08.13.2.2,0,0,1,0,.15l-1.48,2.16,1.32,1.93a.27.27,0,0,1,0,.15.16.16,0,0,1-.08.13.24.24,0,0,1-.12,0,.21.21,0,0,1-.17-.09l-.63-.91-.62-.91-.62.92-.62.9a.26.26,0,0,1-.17.09h0l-.07,0a.2.2,0,0,1-.08-.13.22.22,0,0,1,0-.16l1.34-1.93-.37-.53-.36-.52c-.12-.19-.25-.37-.38-.56l-.38-.55a.19.19,0,0,1,0-.15.27.27,0,0,1,.08-.14.16.16,0,0,1,.16,0,.32.32,0,0,1,.13.08l.4.59.39.57.31.42.29.44,1.39-2a.3.3,0,0,1,.13-.09A.13.13,0,0,1,206.62,87.32Z"/><path class="cls-2" d="M208.31,91.53a.25.25,0,0,1,.18.08.24.24,0,0,1,.08.18.22.22,0,0,1-.08.18.27.27,0,0,1-.36,0,.29.29,0,0,1-.07-.18.34.34,0,0,1,.07-.18A.25.25,0,0,1,208.31,91.53Z"/><path class="cls-2" d="M213.61,87.27a.19.19,0,0,1,.13.06.2.2,0,0,1,.06.15v4.33a.2.2,0,0,1-.06.15.19.19,0,0,1-.13.06.2.2,0,0,1-.14-.06.2.2,0,0,1-.06-.15v-.56l-.17.19a1.81,1.81,0,0,1-.64.43,1.86,1.86,0,0,1-.75.15,1.94,1.94,0,0,1-.76-.15,1.69,1.69,0,0,1-.63-.43,1.91,1.91,0,0,1-.43-.63,2.12,2.12,0,0,1-.14-.75V87.48a.25.25,0,0,1,.05-.15.19.19,0,0,1,.28,0,.21.21,0,0,1,.07.15v2.57a1.54,1.54,0,0,0,.12.61,1.63,1.63,0,0,0,.33.49,1.67,1.67,0,0,0,.5.33,1.58,1.58,0,0,0,.61.12,1.54,1.54,0,0,0,.61-.12,1.51,1.51,0,0,0,.49-.33,1.66,1.66,0,0,0,.34-.49,1.54,1.54,0,0,0,.12-.61V87.48a.2.2,0,0,1,.06-.15A.2.2,0,0,1,213.61,87.27Z"/><path class="cls-2" d="M217.42,91.89c-.09.24-.18.47-.28.71s-.19.48-.28.7a1,1,0,0,1-.15.25,1,1,0,0,1-.2.22,1.14,1.14,0,0,1-.58.17h-.2a.2.2,0,0,1-.14-.06.2.2,0,0,1-.06-.15.21.21,0,0,1,.2-.2h.2a.55.55,0,0,0,.34-.11.76.76,0,0,0,.23-.3c0-.1.07-.2.11-.31s.09-.21.14-.31l.27-.69-1.72-4.3a.21.21,0,0,1,0-.13.23.23,0,0,1,.1-.12.23.23,0,0,1,.18,0,.19.19,0,0,1,.09.09l1.56,3.88,1.55-3.87h0a.2.2,0,0,1,.11-.11.18.18,0,0,1,.16,0,.27.27,0,0,1,.09.12.22.22,0,0,1,0,.16Z"/><text class="cls-4" transform="translate(138.48 54.44)">J<tspan class="cls-5" x="3.88" y="0">U</tspan><tspan class="cls-6" x="10.41" y="0">AN ANDR</tspan><tspan class="cls-7" x="52.25" y="0">É</tspan><tspan x="57.45" y="0">S MORENA</tspan></text><circle class="cls-2" cx="143.46" cy="66.02" r="4.98"/><circle class="cls-2" cx="143.46" cy="77.88" r="4.98"/><circle class="cls-2" cx="143.46" cy="89.74" r="4.98"/><image width="512" height="512" transform="translate(140.72 63.27) scale(0.01)" xlink:href="../../../Fondos%20+%20Imagenes%20Utiles/telefono.png"/><image width="256" height="256" transform="translate(140.74 87.01) scale(0.02)" xlink:href="../../../Fondos%20+%20Imagenes%20Utiles/web.png"/><image width="512" height="512" transform="translate(140.1 74.51) scale(0.01)" xlink:href="../../../Fondos%20+%20Imagenes%20Utiles/mail.png"/></g></g></svg>